<?xml version="1.0" encoding="utf-8"?>
<!-- Generator: Adobe Illustrator 18.0.0, SVG Export Plug-In . SVG Version: 6.00 Build 0)  -->
<!DOCTYPE svg PUBLIC "-//W3C//DTD SVG 1.1//EN" "http://www.w3.org/Graphics/SVG/1.1/DTD/svg11.dtd">
<svg version="1.1" id="Layer_1" xmlns="http://www.w3.org/2000/svg" xmlns:xlink="http://www.w3.org/1999/xlink" x="0px" y="0px"
	 viewBox="0 0 97.4 120.9" enable-background="new 0 0 97.4 120.9" xml:space="preserve">
<defs>
	<filter id="Adobe_OpacityMaskFilter" filterUnits="userSpaceOnUse" x="1.1" y="3.2" width="95.1" height="116.1">
		<feColorMatrix  type="matrix" values="1 0 0 0 0  0 1 0 0 0  0 0 1 0 0  0 0 0 1 0"/>
	</filter>
</defs>
<mask maskUnits="userSpaceOnUse" x="1.1" y="3.2" width="95.1" height="116.1" id="SVGID_1_">
	<g filter="url(#Adobe_OpacityMaskFilter)">
		<g>
			<g>
				<path fill="#CDCCCC" stroke="#CDCCCC" stroke-width="10" stroke-miterlimit="10" d="M78.9,25.5c-13.8-8-9.5-17.2-30.3-17.2h0.1
					c-20.8,0-16.5,9.7-30.3,17.7"/>
				<polyline fill="#CDCCCC" stroke="#CDCCCC" stroke-width="10" stroke-miterlimit="10" points="9.3,30.4 7.9,27.8 17,22.4 
					18.3,24.6 				"/>
				<path fill="#CDCCCC" stroke="#CDCCCC" stroke-width="10" stroke-miterlimit="10" d="M91.2,33l-3,70.3H9.3L6.2,33
					c0,0,14.2-15.2,42.5-15.2S91.2,33,91.2,33z"/>
				<path fill="#FFFFFF" stroke="#CDCCCC" stroke-width="10" stroke-miterlimit="10" d="M19.3,61.2c-0.3-1.8-0.5-4.2-0.5-6
					C18.8,38.7,32.2,25,48.7,25s29.9,13.2,29.9,29.7c0,1.9-0.2,4.7-0.5,6.5l1.2,7.5H18.1"/>
				<path fill="#DEDEDD" stroke="#CDCCCC" stroke-width="10" stroke-miterlimit="10" d="M21.8,49.3c2.5-12.6,13.6-22.1,26.9-22.1
					c13.4,0,24.6,9.7,27,22.4l4.4,19.6l-62.5-1.3L21.8,49.3z"/>
				<path fill="#CDCCCC" stroke="#CDCCCC" stroke-width="10" stroke-miterlimit="10" d="M16.2,79.7c0-0.6-0.1-1.3-0.1-2
					c0-18,14.6-32.6,32.6-32.6s32.6,14.6,32.6,32.6c0,0.7,0,1.3-0.1,2"/>
				<line fill="none" stroke="#CDCCCC" stroke-width="10" stroke-miterlimit="10" x1="17.3" y1="69.2" x2="22.1" y2="47.8"/>
				<line fill="none" stroke="#CDCCCC" stroke-width="10" stroke-miterlimit="10" x1="75.2" y1="47.6" x2="80.1" y2="69.2"/>
				<path fill="none" stroke="#CDCCCC" stroke-width="10" stroke-miterlimit="10" d="M44.2,81.7"/>
				<path fill="none" stroke="#CDCCCC" stroke-width="10" stroke-miterlimit="10" d="M40,81.7"/>
				<path fill="none" stroke="#CDCCCC" stroke-width="10" stroke-miterlimit="10" d="M35.8,81.7"/>
				<path fill="none" stroke="#CDCCCC" stroke-width="10" stroke-miterlimit="10" d="M31.5,81.7"/>
				<path fill="none" stroke="#CDCCCC" stroke-width="10" stroke-miterlimit="10" d="M27.3,81.7"/>
				<path fill="none" stroke="#CDCCCC" stroke-width="10" stroke-miterlimit="10" d="M23,81.7"/>
				<path fill="none" stroke="#CDCCCC" stroke-width="10" stroke-miterlimit="10" d="M18.8,81.7"/>
				<path fill="none" stroke="#CDCCCC" stroke-width="10" stroke-miterlimit="10" d="M52.7,81.7"/>
				<path fill="none" stroke="#CDCCCC" stroke-width="10" stroke-miterlimit="10" d="M56.9,81.7"/>
				<path fill="none" stroke="#CDCCCC" stroke-width="10" stroke-miterlimit="10" d="M61.2,81.7"/>
				<path fill="none" stroke="#CDCCCC" stroke-width="10" stroke-miterlimit="10" d="M65.4,81.7"/>
				<path fill="none" stroke="#CDCCCC" stroke-width="10" stroke-miterlimit="10" d="M69.6,81.7"/>
				<path fill="none" stroke="#CDCCCC" stroke-width="10" stroke-miterlimit="10" d="M73.9,81.7"/>
				<path fill="none" stroke="#CDCCCC" stroke-width="10" stroke-miterlimit="10" d="M78.1,81.7"/>
				<line fill="none" stroke="#CDCCCC" stroke-width="10" stroke-miterlimit="10" x1="46.7" y1="27.2" x2="46.7" y2="45.2"/>
				<line fill="none" stroke="#CDCCCC" stroke-width="10" stroke-miterlimit="10" x1="45.3" y1="45.4" x2="45.9" y2="27.2"/>
				<line fill="none" stroke="#CDCCCC" stroke-width="10" stroke-miterlimit="10" x1="38.9" y1="46.7" x2="40.5" y2="28.4"/>
				<line fill="none" stroke="#CDCCCC" stroke-width="10" stroke-miterlimit="10" x1="43.2" y1="27.7" x2="42.1" y2="45.9"/>
				<line fill="none" stroke="#CDCCCC" stroke-width="10" stroke-miterlimit="10" x1="35.5" y1="48" x2="37.7" y2="29.5"/>
				<line fill="none" stroke="#CDCCCC" stroke-width="10" stroke-miterlimit="10" x1="34.8" y1="31" x2="32" y2="49.8"/>
				<line fill="none" stroke="#CDCCCC" stroke-width="10" stroke-miterlimit="10" x1="28.2" y1="52.5" x2="31.7" y2="33.1"/>
				<line fill="none" stroke="#CDCCCC" stroke-width="10" stroke-miterlimit="10" x1="28.2" y1="36.4" x2="24" y2="56.6"/>
				<line fill="none" stroke="#CDCCCC" stroke-width="10" stroke-miterlimit="10" x1="51.6" y1="45.2" x2="50.9" y2="27.3"/>
				<line fill="none" stroke="#CDCCCC" stroke-width="10" stroke-miterlimit="10" x1="53.8" y1="27.6" x2="54.8" y2="46"/>
				<line fill="none" stroke="#CDCCCC" stroke-width="10" stroke-miterlimit="10" x1="58.1" y1="46.6" x2="56.5" y2="28.3"/>
				<line fill="none" stroke="#CDCCCC" stroke-width="10" stroke-miterlimit="10" x1="59.2" y1="29.3" x2="61.4" y2="48"/>
				<line fill="none" stroke="#CDCCCC" stroke-width="10" stroke-miterlimit="10" x1="65" y1="49.6" x2="62.2" y2="30.7"/>
				<line fill="none" stroke="#CDCCCC" stroke-width="10" stroke-miterlimit="10" x1="65.2" y1="32.7" x2="68.6" y2="52"/>
				<line fill="none" stroke="#CDCCCC" stroke-width="10" stroke-miterlimit="10" x1="72.8" y1="55.9" x2="68.6" y2="35.7"/>
				<circle fill="#DEDEDD" stroke="#CDCCCC" stroke-width="10" stroke-miterlimit="10" cx="48.7" cy="81.7" r="32.6"/>
				<circle fill="#CDCCCC" stroke="#CDCCCC" stroke-width="10" stroke-miterlimit="10" cx="48.7" cy="81.7" r="30.2"/>
				<circle fill="#DEDEDD" stroke="#CDCCCC" stroke-width="10" stroke-miterlimit="10" cx="48.7" cy="81.7" r="24.1"/>
				<circle fill="#FFFFFF" stroke="#CDCCCC" stroke-width="10" stroke-miterlimit="10" cx="48.7" cy="81.7" r="7.8"/>
				
					<ellipse opacity="0.6" fill="#FFFFFF" stroke="#CDCCCC" stroke-width="10" stroke-miterlimit="10" cx="48.7" cy="61.5" rx="16.7" ry="8.6"/>
				<circle fill="#FFFFFF" stroke="#CDCCCC" stroke-width="10" stroke-miterlimit="10" cx="48.5" cy="54.8" r="1.2"/>
				<circle fill="#FFFFFF" stroke="#CDCCCC" stroke-width="10" stroke-miterlimit="10" cx="48.5" cy="59.4" r="2.4"/>
			</g>
			<g>
				<path fill="#787676" stroke="#000000" stroke-width="3" stroke-miterlimit="10" d="M78.9,24.9c-13.8-8-9.5-17.1-30.3-17.1h0.1
					C27.9,7.8,32.2,17,18.4,25"/>
				<polyline fill="#CDCCCC" points="9.3,30.4 7.9,27.8 17,22.4 18.3,24.6 				"/>
				<path fill="#787676" stroke="#000000" stroke-width="3" stroke-miterlimit="10" d="M91.2,33l-3,70.3H9.3L6.2,33
					c0,0,14.2-15.2,42.5-15.2S91.2,33,91.2,33z"/>
				<path fill="#525252" d="M19.3,60.2c-0.3-1.8-0.5-3.7-0.5-5.5c0-16.5,13.4-29.9,29.9-29.9s29.9,13.4,29.9,29.9
					c0,1.9-0.2,3.8-0.5,5.6l1.2,6.6H18.1"/>
				<path fill="#787676" stroke="#000000" stroke-width="3" stroke-miterlimit="10" d="M21.8,49.3c2.5-12.6,13.6-22.1,26.9-22.1
					c13.4,0,24.6,9.7,27,22.4l4.4,19.6l-62.5-1.3L21.8,49.3z"/>
				<path fill="#CDCCCC" stroke="#000000" stroke-width="3" stroke-miterlimit="10" d="M16.2,79.7c0-0.6-0.1-1.3-0.1-2
					c0-18,14.6-32.6,32.6-32.6s32.6,14.6,32.6,32.6c0,0.7,0,1.3-0.1,2"/>
				<line fill="none" stroke="#000000" stroke-miterlimit="10" x1="17.3" y1="69.2" x2="22.1" y2="47.8"/>
				<line fill="none" stroke="#000000" stroke-miterlimit="10" x1="75.2" y1="47.6" x2="80.1" y2="69.2"/>
				<path fill="none" stroke="#EFEFEF" stroke-miterlimit="10" d="M44.2,81.7"/>
				<path fill="none" stroke="#EFEFEF" stroke-miterlimit="10" d="M40,81.7"/>
				<path fill="none" stroke="#EFEFEF" stroke-miterlimit="10" d="M35.8,81.7"/>
				<path fill="none" stroke="#EFEFEF" stroke-miterlimit="10" d="M31.5,81.7"/>
				<path fill="none" stroke="#EFEFEF" stroke-miterlimit="10" d="M27.3,81.7"/>
				<path fill="none" stroke="#EFEFEF" stroke-miterlimit="10" d="M23,81.7"/>
				<path fill="none" stroke="#EFEFEF" stroke-miterlimit="10" d="M18.8,81.7"/>
				<path fill="none" stroke="#EFEFEF" stroke-miterlimit="10" d="M52.7,81.7"/>
				<path fill="none" stroke="#EFEFEF" stroke-miterlimit="10" d="M56.9,81.7"/>
				<path fill="none" stroke="#EFEFEF" stroke-miterlimit="10" d="M61.2,81.7"/>
				<path fill="none" stroke="#EFEFEF" stroke-miterlimit="10" d="M65.4,81.7"/>
				<path fill="none" stroke="#EFEFEF" stroke-miterlimit="10" d="M69.6,81.7"/>
				<path fill="none" stroke="#EFEFEF" stroke-miterlimit="10" d="M73.9,81.7"/>
				<path fill="none" stroke="#EFEFEF" stroke-miterlimit="10" d="M78.1,81.7"/>
				<line fill="none" stroke="#000000" stroke-width="3" stroke-miterlimit="10" x1="48.1" y1="27.2" x2="48.1" y2="45.2"/>
				<line fill="none" stroke="#000000" stroke-width="3" stroke-miterlimit="10" x1="45.3" y1="45.4" x2="45.9" y2="27.2"/>
				<line fill="none" stroke="#000000" stroke-width="3" stroke-miterlimit="10" x1="38.9" y1="46.7" x2="40.5" y2="28.4"/>
				<line fill="none" stroke="#000000" stroke-width="3" stroke-miterlimit="10" x1="43.2" y1="27.7" x2="42.1" y2="45.9"/>
				<line fill="none" stroke="#000000" stroke-width="3" stroke-miterlimit="10" x1="35.5" y1="48" x2="37.7" y2="29.5"/>
				<line fill="none" stroke="#000000" stroke-width="3" stroke-miterlimit="10" x1="34.8" y1="31" x2="32" y2="49.8"/>
				<line fill="none" stroke="#000000" stroke-width="3" stroke-miterlimit="10" x1="28.2" y1="52.5" x2="31.7" y2="33.1"/>
				<line fill="none" stroke="#000000" stroke-width="3" stroke-miterlimit="10" x1="28.2" y1="36.4" x2="24" y2="56.6"/>
				<line fill="none" stroke="#000000" stroke-width="3" stroke-miterlimit="10" x1="51.6" y1="45.2" x2="50.9" y2="27.3"/>
				<line fill="none" stroke="#000000" stroke-width="3" stroke-miterlimit="10" x1="53.8" y1="27.6" x2="54.8" y2="46"/>
				<line fill="none" stroke="#000000" stroke-width="3" stroke-miterlimit="10" x1="58.1" y1="46.6" x2="56.5" y2="28.3"/>
				<line fill="none" stroke="#000000" stroke-width="3" stroke-miterlimit="10" x1="59.2" y1="29.3" x2="61.4" y2="48"/>
				<line fill="none" stroke="#000000" stroke-width="3" stroke-miterlimit="10" x1="65" y1="49.6" x2="62.2" y2="30.7"/>
				<line fill="none" stroke="#000000" stroke-width="3" stroke-miterlimit="10" x1="65.2" y1="32.7" x2="68.6" y2="52"/>
				<line fill="none" stroke="#000000" stroke-width="3" stroke-miterlimit="10" x1="72.8" y1="55.9" x2="68.6" y2="35.7"/>
				<circle fill="#CDCCCC" stroke="#000000" stroke-width="3" stroke-miterlimit="10" cx="48.7" cy="81.7" r="32.6"/>
				<circle fill="#787676" cx="48.7" cy="81.7" r="30.2"/>
				<circle fill="#CDCCCC" cx="48.7" cy="81.7" r="24.1"/>
				<circle fill="#FFFFFF" cx="48.7" cy="81.7" r="7.8"/>
				<ellipse opacity="0.6" fill="#FFFFFF" stroke="#EFEFEF" stroke-miterlimit="10" cx="48.7" cy="61.5" rx="16.7" ry="8.6"/>
				<circle fill="#FFFFFF" stroke="#EFEFEF" stroke-miterlimit="10" cx="48.5" cy="54.8" r="1.2"/>
				<circle fill="#FFFFFF" stroke="#EFEFEF" stroke-miterlimit="10" cx="48.5" cy="59.4" r="2.4"/>
			</g>
		</g>
	</g>
</mask>
<g mask="url(#SVGID_1_)">
	<g>
		<path fill="#FFFFFF" stroke="#FFFFFF" stroke-width="10" stroke-miterlimit="10" d="M78.9,25.5c-13.8-8-9.5-17.3-30.3-17.3h0.1
			c-20.8,0-16.5,9.8-30.3,17.7"/>
		<polyline fill="#FFFFFF" stroke="#FFFFFF" stroke-width="10" stroke-miterlimit="10" points="9.3,30.4 7.9,27.8 17,22.4 
			18.3,24.6 		"/>
		<path fill="#FFFFFF" stroke="#FFFFFF" stroke-width="10" stroke-miterlimit="10" d="M91.2,33l-3,70.3H9.3L6.2,33
			c0,0,14.2-15.2,42.5-15.2S91.2,33,91.2,33z"/>
		<path fill="#FFFFFF" stroke="#FFFFFF" stroke-width="10" stroke-miterlimit="10" d="M19.5,61.4c-0.3-1.8-0.6-4.3-0.6-6.1
			c0-16.5,13.3-30.2,29.8-30.2s29.9,13.2,29.9,29.7c0,1.9-0.2,4.9-0.5,6.7l1.2,7.7H18.5"/>
		<path fill="#FFFFFF" stroke="#FFFFFF" stroke-width="10" stroke-miterlimit="10" d="M21.8,49.3c2.5-12.6,13.6-22.1,26.9-22.1
			c13.4,0,24.6,9.7,27,22.4l4.4,19.6l-62.5-1.3L21.8,49.3z"/>
		<path fill="#FFFFFF" stroke="#FFFFFF" stroke-width="10" stroke-miterlimit="10" d="M16.2,79.7c0-0.6-0.1-1.3-0.1-2
			c0-18,14.6-32.6,32.6-32.6s32.6,14.6,32.6,32.6c0,0.7,0,1.3-0.1,2"/>
		<line fill="#FFFFFF" stroke="#FFFFFF" stroke-width="10" stroke-miterlimit="10" x1="17.3" y1="69.2" x2="22.1" y2="47.8"/>
		<line fill="#FFFFFF" stroke="#FFFFFF" stroke-width="10" stroke-miterlimit="10" x1="75.2" y1="47.6" x2="80.1" y2="69.2"/>
		<path fill="#FFFFFF" stroke="#FFFFFF" stroke-width="10" stroke-miterlimit="10" d="M44.2,81.7"/>
		<path fill="#FFFFFF" stroke="#FFFFFF" stroke-width="10" stroke-miterlimit="10" d="M40,81.7"/>
		<path fill="#FFFFFF" stroke="#FFFFFF" stroke-width="10" stroke-miterlimit="10" d="M35.8,81.7"/>
		<path fill="#FFFFFF" stroke="#FFFFFF" stroke-width="10" stroke-miterlimit="10" d="M31.5,81.7"/>
		<path fill="#FFFFFF" stroke="#FFFFFF" stroke-width="10" stroke-miterlimit="10" d="M27.3,81.7"/>
		<path fill="#FFFFFF" stroke="#FFFFFF" stroke-width="10" stroke-miterlimit="10" d="M23,81.7"/>
		<path fill="#FFFFFF" stroke="#FFFFFF" stroke-width="10" stroke-miterlimit="10" d="M18.8,81.7"/>
		<path fill="#FFFFFF" stroke="#FFFFFF" stroke-width="10" stroke-miterlimit="10" d="M52.7,81.7"/>
		<path fill="#FFFFFF" stroke="#FFFFFF" stroke-width="10" stroke-miterlimit="10" d="M56.9,81.7"/>
		<path fill="#FFFFFF" stroke="#FFFFFF" stroke-width="10" stroke-miterlimit="10" d="M61.2,81.7"/>
		<path fill="#FFFFFF" stroke="#FFFFFF" stroke-width="10" stroke-miterlimit="10" d="M65.4,81.7"/>
		<path fill="#FFFFFF" stroke="#FFFFFF" stroke-width="10" stroke-miterlimit="10" d="M69.6,81.7"/>
		<path fill="#FFFFFF" stroke="#FFFFFF" stroke-width="10" stroke-miterlimit="10" d="M73.9,81.7"/>
		<path fill="#FFFFFF" stroke="#FFFFFF" stroke-width="10" stroke-miterlimit="10" d="M78.1,81.7"/>
		<line fill="#FFFFFF" stroke="#FFFFFF" stroke-width="10" stroke-miterlimit="10" x1="46.5" y1="27.2" x2="46.5" y2="45.2"/>
		<line fill="#FFFFFF" stroke="#FFFFFF" stroke-width="10" stroke-miterlimit="10" x1="45.3" y1="45.4" x2="45.9" y2="27.2"/>
		<line fill="#FFFFFF" stroke="#FFFFFF" stroke-width="10" stroke-miterlimit="10" x1="38.9" y1="46.7" x2="40.5" y2="28.4"/>
		<line fill="#FFFFFF" stroke="#FFFFFF" stroke-width="10" stroke-miterlimit="10" x1="43.2" y1="27.7" x2="42.1" y2="45.9"/>
		<line fill="#FFFFFF" stroke="#FFFFFF" stroke-width="10" stroke-miterlimit="10" x1="35.5" y1="48" x2="37.7" y2="29.5"/>
		<line fill="#FFFFFF" stroke="#FFFFFF" stroke-width="10" stroke-miterlimit="10" x1="34.8" y1="31" x2="32" y2="49.8"/>
		<line fill="#FFFFFF" stroke="#FFFFFF" stroke-width="10" stroke-miterlimit="10" x1="28.2" y1="52.5" x2="31.7" y2="33.1"/>
		<line fill="#FFFFFF" stroke="#FFFFFF" stroke-width="10" stroke-miterlimit="10" x1="28.2" y1="36.4" x2="24" y2="56.6"/>
		<line fill="#FFFFFF" stroke="#FFFFFF" stroke-width="10" stroke-miterlimit="10" x1="51.6" y1="45.2" x2="50.9" y2="27.3"/>
		<line fill="#FFFFFF" stroke="#FFFFFF" stroke-width="10" stroke-miterlimit="10" x1="53.8" y1="27.6" x2="54.8" y2="46"/>
		<line fill="#FFFFFF" stroke="#FFFFFF" stroke-width="10" stroke-miterlimit="10" x1="58.1" y1="46.6" x2="56.5" y2="28.3"/>
		<line fill="#FFFFFF" stroke="#FFFFFF" stroke-width="10" stroke-miterlimit="10" x1="59.2" y1="29.3" x2="61.4" y2="48"/>
		<line fill="#FFFFFF" stroke="#FFFFFF" stroke-width="10" stroke-miterlimit="10" x1="65" y1="49.6" x2="62.2" y2="30.7"/>
		<line fill="#FFFFFF" stroke="#FFFFFF" stroke-width="10" stroke-miterlimit="10" x1="65.2" y1="32.7" x2="68.6" y2="52"/>
		<line fill="#FFFFFF" stroke="#FFFFFF" stroke-width="10" stroke-miterlimit="10" x1="72.8" y1="55.9" x2="68.6" y2="35.7"/>
		<circle fill="#FFFFFF" stroke="#FFFFFF" stroke-width="10" stroke-miterlimit="10" cx="48.7" cy="81.7" r="32.6"/>
		<circle fill="#FFFFFF" stroke="#FFFFFF" stroke-width="10" stroke-miterlimit="10" cx="48.7" cy="81.7" r="30.2"/>
		<circle fill="#FFFFFF" stroke="#FFFFFF" stroke-width="10" stroke-miterlimit="10" cx="48.7" cy="81.7" r="24.1"/>
		<circle fill="#FFFFFF" stroke="#FFFFFF" stroke-width="10" stroke-miterlimit="10" cx="48.7" cy="81.7" r="7.8"/>
		
			<ellipse opacity="0.6" fill="#FFFFFF" stroke="#FFFFFF" stroke-width="10" stroke-miterlimit="10" cx="48.7" cy="61.5" rx="16.7" ry="8.6"/>
		<circle fill="#FFFFFF" stroke="#FFFFFF" stroke-width="10" stroke-miterlimit="10" cx="48.5" cy="54.8" r="1.2"/>
		<circle fill="#FFFFFF" stroke="#FFFFFF" stroke-width="10" stroke-miterlimit="10" cx="48.5" cy="59.4" r="2.4"/>
	</g>
	<g>
		<path fill="#FFFFFF" stroke="#FFFFFF" stroke-miterlimit="10" d="M78.9,24.3c-13.8-8-9.5-17.6-30.3-17.6h0.1
			c-20.8,0-16.5,9.5-30.3,17.5"/>
		<polyline fill="#FFFFFF" stroke="#FFFFFF" stroke-miterlimit="10" points="9.3,30.4 7.9,27.8 17,22.4 18.3,24.6 		"/>
		<path fill="#FFFFFF" stroke="#FFFFFF" stroke-miterlimit="10" d="M91.2,33l-3,70.3H9.3L6.2,33c0,0,14.2-15.2,42.5-15.2
			S91.2,33,91.2,33z"/>
		<path fill="#FFFFFF" stroke="#FFFFFF" stroke-miterlimit="10" d="M19.5,60.2c-0.3-1.8-0.6-3.6-0.6-5.5c0-16.5,13.3-29.9,29.8-29.9
			s29.9,13.4,29.9,29.9c0,1.9-0.2,3.8-0.5,5.5l1.2,6.5H18.5"/>
		<path fill="#FFFFFF" stroke="#FFFFFF" stroke-miterlimit="10" d="M21.8,49.3c2.5-12.6,13.6-22.1,26.9-22.1
			c13.4,0,24.6,9.7,27,22.4l4.4,19.6l-62.5-1.3L21.8,49.3z"/>
		<path fill="#FFFFFF" stroke="#FFFFFF" stroke-miterlimit="10" d="M16.2,79.7c0-0.6-0.1-1.3-0.1-2c0-18,14.6-32.6,32.6-32.6
			s32.6,14.6,32.6,32.6c0,0.7,0,1.3-0.1,2"/>
		<line fill="#FFFFFF" stroke="#FFFFFF" stroke-miterlimit="10" x1="17.3" y1="69.2" x2="22.1" y2="47.8"/>
		<line fill="#FFFFFF" stroke="#FFFFFF" stroke-miterlimit="10" x1="75.2" y1="47.6" x2="80.1" y2="69.2"/>
		<path fill="#FFFFFF" stroke="#FFFFFF" stroke-miterlimit="10" d="M44.2,81.7"/>
		<path fill="#FFFFFF" stroke="#FFFFFF" stroke-miterlimit="10" d="M40,81.7"/>
		<path fill="#FFFFFF" stroke="#FFFFFF" stroke-miterlimit="10" d="M35.8,81.7"/>
		<path fill="#FFFFFF" stroke="#FFFFFF" stroke-miterlimit="10" d="M31.5,81.7"/>
		<path fill="#FFFFFF" stroke="#FFFFFF" stroke-miterlimit="10" d="M27.3,81.7"/>
		<path fill="#FFFFFF" stroke="#FFFFFF" stroke-miterlimit="10" d="M23,81.7"/>
		<path fill="#FFFFFF" stroke="#FFFFFF" stroke-miterlimit="10" d="M18.8,81.7"/>
		<path fill="#FFFFFF" stroke="#FFFFFF" stroke-miterlimit="10" d="M52.7,81.7"/>
		<path fill="#FFFFFF" stroke="#FFFFFF" stroke-miterlimit="10" d="M56.9,81.7"/>
		<path fill="#FFFFFF" stroke="#FFFFFF" stroke-miterlimit="10" d="M61.2,81.7"/>
		<path fill="#FFFFFF" stroke="#FFFFFF" stroke-miterlimit="10" d="M65.4,81.7"/>
		<path fill="#FFFFFF" stroke="#FFFFFF" stroke-miterlimit="10" d="M69.6,81.7"/>
		<path fill="#FFFFFF" stroke="#FFFFFF" stroke-miterlimit="10" d="M73.9,81.7"/>
		<path fill="#FFFFFF" stroke="#FFFFFF" stroke-miterlimit="10" d="M78.1,81.7"/>
		<line fill="#FFFFFF" stroke="#FFFFFF" stroke-miterlimit="10" x1="49" y1="27.2" x2="49" y2="45.2"/>
		<line fill="#FFFFFF" stroke="#FFFFFF" stroke-miterlimit="10" x1="45.3" y1="45.4" x2="45.9" y2="27.2"/>
		<line fill="#FFFFFF" stroke="#FFFFFF" stroke-miterlimit="10" x1="38.9" y1="46.7" x2="40.5" y2="28.4"/>
		<line fill="#FFFFFF" stroke="#FFFFFF" stroke-miterlimit="10" x1="43.2" y1="27.7" x2="42.1" y2="45.9"/>
		<line fill="#FFFFFF" stroke="#FFFFFF" stroke-miterlimit="10" x1="35.5" y1="48" x2="37.7" y2="29.5"/>
		<line fill="#FFFFFF" stroke="#FFFFFF" stroke-miterlimit="10" x1="34.8" y1="31" x2="32" y2="49.8"/>
		<line fill="#FFFFFF" stroke="#FFFFFF" stroke-miterlimit="10" x1="28.2" y1="52.5" x2="31.7" y2="33.1"/>
		<line fill="#FFFFFF" stroke="#FFFFFF" stroke-miterlimit="10" x1="28.2" y1="36.4" x2="24" y2="56.6"/>
		<line fill="#FFFFFF" stroke="#FFFFFF" stroke-miterlimit="10" x1="51.6" y1="45.2" x2="50.9" y2="27.3"/>
		<line fill="#FFFFFF" stroke="#FFFFFF" stroke-miterlimit="10" x1="53.8" y1="27.6" x2="54.8" y2="46"/>
		<line fill="#FFFFFF" stroke="#FFFFFF" stroke-miterlimit="10" x1="58.1" y1="46.6" x2="56.5" y2="28.3"/>
		<line fill="#FFFFFF" stroke="#FFFFFF" stroke-miterlimit="10" x1="59.2" y1="29.3" x2="61.4" y2="48"/>
		<line fill="#FFFFFF" stroke="#FFFFFF" stroke-miterlimit="10" x1="65" y1="49.6" x2="62.2" y2="30.7"/>
		<line fill="#FFFFFF" stroke="#FFFFFF" stroke-miterlimit="10" x1="65.2" y1="32.7" x2="68.6" y2="52"/>
		<line fill="#FFFFFF" stroke="#FFFFFF" stroke-miterlimit="10" x1="72.8" y1="55.9" x2="68.6" y2="35.7"/>
		<circle fill="#FFFFFF" stroke="#FFFFFF" stroke-miterlimit="10" cx="48.7" cy="81.7" r="32.6"/>
		<circle fill="#FFFFFF" stroke="#FFFFFF" stroke-miterlimit="10" cx="48.7" cy="81.7" r="30.2"/>
		<circle fill="#FFFFFF" stroke="#FFFFFF" stroke-miterlimit="10" cx="48.7" cy="81.7" r="24.1"/>
		<circle fill="#FFFFFF" stroke="#FFFFFF" stroke-miterlimit="10" cx="48.7" cy="81.7" r="7.8"/>
		<ellipse opacity="0.6" fill="#FFFFFF" stroke="#FFFFFF" stroke-miterlimit="10" cx="48.7" cy="61.5" rx="16.7" ry="8.6"/>
		<circle fill="#FFFFFF" stroke="#FFFFFF" stroke-miterlimit="10" cx="48.5" cy="54.8" r="1.2"/>
		<circle fill="#FFFFFF" stroke="#FFFFFF" stroke-miterlimit="10" cx="48.5" cy="59.4" r="2.4"/>
	</g>
</g>
</svg>
