<?xml version="1.0" encoding="utf-8"?>
<!-- Generator: Adobe Illustrator 18.0.0, SVG Export Plug-In . SVG Version: 6.00 Build 0)  -->
<!DOCTYPE svg PUBLIC "-//W3C//DTD SVG 1.1//EN" "http://www.w3.org/Graphics/SVG/1.1/DTD/svg11.dtd">
<svg version="1.1" id="Layer_1" xmlns="http://www.w3.org/2000/svg" xmlns:xlink="http://www.w3.org/1999/xlink" x="0px" y="0px"
	 viewBox="0 0 119.3 137" enable-background="new 0 0 119.3 137" xml:space="preserve">
<g>
	<g>
		<path fill="#EF0F54" d="M59.8,119.6c-27.6,0-50.1-22.5-50.1-50.1s22.5-50.1,50.1-50.1s50.1,22.5,50.1,50.1S87.4,119.6,59.8,119.6z
			 M59.8,28.8c-22.4,0-40.6,18.2-40.6,40.6S37.4,110,59.8,110s40.6-18.2,40.6-40.6S82.2,28.8,59.8,28.8z"/>
	</g>
	<g>
		<path fill="#EF0F54" d="M83.6,75.5H35.9c-3.5,0-6.4-2.5-6.4-6s2.8-6,6.4-6h47.7c3.5,0,6.4,2.5,6.4,6S87.1,75.5,83.6,75.5z"/>
	</g>
	<g>
		<path fill="#EF0F54" d="M59.2,99.2c-3.5,0-5.5-2.8-5.5-6.4V45.7c0-3.5,2-6.4,5.5-6.4c3.5,0,5.5,2.8,5.5,6.4v47.2
			C64.7,96.4,62.7,99.2,59.2,99.2z"/>
	</g>
</g>
</svg>
