<?xml version="1.0" encoding="utf-8"?>
<!-- Generator: Adobe Illustrator 17.1.0, SVG Export Plug-In . SVG Version: 6.00 Build 0)  -->
<!DOCTYPE svg PUBLIC "-//W3C//DTD SVG 1.1//EN" "http://www.w3.org/Graphics/SVG/1.1/DTD/svg11.dtd">
<svg version="1.1" id="Layer_1" xmlns="http://www.w3.org/2000/svg" xmlns:xlink="http://www.w3.org/1999/xlink" x="0px" y="0px"
	 viewBox="49.8 144.1 514 514" enable-background="new 49.8 144.1 514 514" xml:space="preserve">
<g>
	<g>
		<path fill="#EF0F54" d="M306.8,658.1c-141.6,0-257-115.4-257-257s115.4-257,257-257s257,115.4,257,257S448.4,658.1,306.8,658.1z
			 M306.8,192.3c-114.9,0-208.3,93.4-208.3,208.3s93.4,208.3,208.3,208.3S515,515.5,515,400.6S421.7,192.3,306.8,192.3z"/>
	</g>
	<g>
		<path fill="#EF0F54" d="M428.9,431.9H184.2c-18,0-32.8-12.8-32.8-30.8c0-18,14.4-30.8,32.8-30.8h244.7c18,0,32.8,12.8,32.8,30.8
			C461.7,419.1,446.8,431.9,428.9,431.9z"/>
	</g>
	<g>
		<path fill="#EF0F54" d="M303.7,553.5c-18,0-28.2-14.4-28.2-32.8V279c0-18,10.3-32.8,28.2-32.8s28.2,14.4,28.2,32.8v242.1
			C331.9,539.1,321.6,553.5,303.7,553.5z"/>
	</g>
</g>
</svg>
