<?xml version="1.0" encoding="utf-8"?>
<!-- Generator: Adobe Illustrator 17.1.0, SVG Export Plug-In . SVG Version: 6.00 Build 0)  -->
<!DOCTYPE svg PUBLIC "-//W3C//DTD SVG 1.1//EN" "http://www.w3.org/Graphics/SVG/1.1/DTD/svg11.dtd">
<svg version="1.1" id="Layer_1" xmlns="http://www.w3.org/2000/svg" xmlns:xlink="http://www.w3.org/1999/xlink" x="0px" y="0px"
	 viewBox="275.6 74.3 408.8 409.6" enable-background="new 275.6 74.3 408.8 409.6" xml:space="preserve">
<g>
	<path fill="#211F1D" d="M479.6,483.9c-112.8,0-204.8-92-204.8-204.8s92-204.8,204.8-204.8s204.8,92,204.8,204.8
		S592.4,483.9,479.6,483.9z M479.6,112.7c-91.6,0-166,74.4-166,166s74.4,166,166,166s166-74.4,166-166S571.2,112.7,479.6,112.7z"/>
</g>
<line fill="none" stroke="#211F1D" stroke-width="20" stroke-miterlimit="10" x1="432" y1="298" x2="432" y2="101"/>
<polyline fill="none" stroke="#211F1D" stroke-width="20" stroke-miterlimit="10" points="463,326 460.4,326 319.7,185.9 "/>
<line fill="none" stroke="#211F1D" stroke-width="20" stroke-miterlimit="10" x1="499" y1="326" x2="305" y2="326"/>
<line fill="none" stroke="#211F1D" stroke-width="20" stroke-miterlimit="10" x1="525.5" y1="298.2" x2="388.7" y2="438.3"/>
<line fill="none" stroke="#211F1D" stroke-width="20" stroke-miterlimit="10" x1="525" y1="260" x2="525" y2="464"/>
<line fill="none" stroke="#211F1D" stroke-width="20" stroke-miterlimit="10" x1="498.7" y1="233.5" x2="638.9" y2="373.4"/>
<line fill="none" stroke="#211F1D" stroke-width="20" stroke-miterlimit="10" x1="460" y1="234" x2="651" y2="234"/>
<line fill="none" stroke="#211F1D" stroke-width="20" stroke-miterlimit="10" x1="432.5" y1="260.6" x2="575.3" y2="123"/>
</svg>
