<?xml version="1.0" encoding="utf-8"?>
<!-- Generator: Adobe Illustrator 18.0.0, SVG Export Plug-In . SVG Version: 6.00 Build 0)  -->
<!DOCTYPE svg PUBLIC "-//W3C//DTD SVG 1.1//EN" "http://www.w3.org/Graphics/SVG/1.1/DTD/svg11.dtd">
<svg version="1.1" id="Layer_1" xmlns="http://www.w3.org/2000/svg" xmlns:xlink="http://www.w3.org/1999/xlink" x="0px" y="0px"
	 viewBox="97 8 598 604" enable-background="new 97 8 598 604" xml:space="preserve">
<g>
	<path fill="#28221F" d="M676,219.9l-23,25.4c2.4,9.7,2.4,14.5,4.8,24.2l30.2,14.5c0,12.1,1.2,14.5,1.2,27.8l-29,15.7
		c-1.2,10.9-1.2,14.5-2.4,24.2l25.4,23c-3.6,12.1-3.6,14.5-7.3,26.6l-33.9,6c-4.8,9.7-6,13.3-10.9,23l16.9,29
		c-7.3,10.9-8.5,12.1-15.7,23l-32.7-2.4c-7.3,7.3-9.7,10.9-16.9,18.1l7.3,32.7c-9.7,7.3-12.1,9.7-21.8,16.9l-30.2-14.5
		c-9.7,4.8-12.1,7.3-21.8,12.1l-3.6,33.9c-12.1,4.8-13.3,4.8-25.4,9.7l-25.4-23c-9.7,2.4-14.5,2.4-24.2,4.8l-14.5,30.2
		c-12.1,0-14.5,1.2-27.8,1.2l-16.9-29c-10.9-1.2-14.5-1.2-24.2-2.4l-23,25.4c-12.1-3.6-14.5-3.6-26.6-7.3l-7.3-33.9
		c-9.7-4.8-13.3-6-23-10.9l-29,16.9c-10.9-7.3-12.1-8.5-23-15.7l3.6-33.9c-7.3-7.3-10.9-9.7-18.1-16.9l-32.7,7.3
		c-7.3-9.7-9.7-12.1-16.9-21.8l14.5-30.2c-4.8-9.7-7.3-12.1-12.1-21.8l-33.9-3.6c-4.8-12.1-4.8-13.3-9.7-25.4l23-25.4
		c-2.4-9.7-2.4-14.5-4.8-24.2L103.9,336c0-12.1-1.2-14.5-1.2-27.8l29-16.9c1.2-10.9,1.2-14.5,2.4-24.2l-25.4-23
		c3.6-12.1,3.6-14.5,7.3-26.6l33.9-6c4.8-9.7,6-13.3,10.9-23l-16.9-29c7.3-10.9,8.5-12.1,15.7-23l33.9,3.6
		c7.3-7.3,9.7-10.9,16.9-18.1l-7.3-32.7c9.7-7.3,12.1-9.7,21.8-16.9l30.2,14.5c9.7-4.8,12.1-7.3,21.8-12.1l3.6-33.9
		c12.1-4.8,13.3-4.8,25.4-9.7l25.4,23c9.7-2.4,14.5-2.4,24.2-4.8L370,19.1c12.1,0,14.5-1.2,27.8-1.2l16.9,29
		c10.9,1.2,14.5,1.2,24.2,2.4l23-25.4c12.1,3.6,14.5,3.6,26.6,7.3l6,33.9c9.7,4.8,13.3,6,23,10.9l29-16.9c10.9,7.3,12.1,8.5,23,15.7
		l-3.6,33.9c7.3,7.3,10.9,9.7,18.1,16.9l32.7-7.3c7.3,9.7,9.7,12.1,16.9,21.8l-13.3,29c4.8,9.7,7.3,12.1,12.1,21.8l33.9,3.6
		C671.2,206.6,672.4,209,676,219.9z M412.3,279.2L578,217.5c14.5-6,20.6-23,12.1-36.3C541.7,108.6,455.9,68.7,370,78.4
		c-15.7,2.4-25.4,18.1-20.6,32.7L412.3,279.2z M527.2,501.7c70.2-48.4,108.9-131.8,100.4-216.5c-1.2-15.7-18.1-25.4-32.7-20.6
		l-165.7,61.7l60.5,163.3C495.8,504.1,513.9,510.2,527.2,501.7z M205.5,441.2c48.4,70.2,133,108.9,218.9,98
		c15.7-2.4,25.4-18.1,20.6-32.7l-60.5-163.3l-165.7,61.7C203.1,409.8,197,427.9,205.5,441.2z M267.2,117.1
		c-73.8,48.4-112.5,135.5-100.4,222.5c2.4,15.7,18.1,25.4,32.7,19.4l166.9-61.7l-62.9-168.1C298.6,113.5,280.5,108.6,267.2,117.1z"
		/>
	<circle fill="#28221F" cx="396.6" cy="309.4" r="143.9"/>
</g>
</svg>
