<?xml version="1.0" encoding="utf-8"?>
<!-- Generator: Adobe Illustrator 18.0.0, SVG Export Plug-In . SVG Version: 6.00 Build 0)  -->
<!DOCTYPE svg PUBLIC "-//W3C//DTD SVG 1.1//EN" "http://www.w3.org/Graphics/SVG/1.1/DTD/svg11.dtd">
<svg version="1.1" id="Layer_1" xmlns="http://www.w3.org/2000/svg" xmlns:xlink="http://www.w3.org/1999/xlink" x="0px" y="0px"
	 viewBox="113 24 579 581" enable-background="new 113 24 579 581" xml:space="preserve">
<path fill="#28221F" d="M537.4,61.6l-2.5,14c7.4,4.1,7.4,4.9,14.8,9.1l11.5-8.2c7.4,4.9,7.4,4.9,14.8,10.7l-4.1,13.2
	c6.6,5.8,6.6,5.8,13.2,11.5l12.4-6.6c6.6,6.6,6.6,5.8,12.4,12.4l-5.8,12.4c5.8,6.6,5.8,6.6,11.5,13.2l11.5-4.1
	c5.8,7.4,4.9,6.6,10.7,14l-7.4,9.9c4.1,7.4,4.9,7.4,9.1,14.8l11.5-2.5c4.1,8.2,4.1,7.4,8.2,15.7l-8.2,8.2c3.3,7.4,3.3,8.2,6.6,15.7
	h11.5c3.3,9.1,2.5,8.2,5.8,17.3l-9.9,6.6c2.5,8.2,2.5,8.2,4.1,16.5l11.6,1.4c1.6,9.1,1.6,8.2,3.3,17.3l-9.1,5.8
	c0.8,8.2,0.8,9.1,1.6,17.3l11.5,3.3c0,9.1,0,9.1,0,18.1l-11.5,4.1c-0.8,8.2-0.8,9.1-0.8,17.3l12.4,5.8c-1.6,9.1-0.8,8.2-2.5,17.3
	l-14,2.5c-1.6,8.2-1.6,9.1-4.1,17.3l11.5,8.2c-2.5,9.1-2.5,8.2-4.9,17.3h-14c-3.3,7.4-3.3,8.2-6.6,16.5l9.9,9.9
	c-4.1,8.2-4.1,7.4-8.2,15.7l-14-2.5c-4.1,7.4-4.9,7.4-9.1,14.8l8.2,11.5c-4.9,7.4-4.9,7.4-10.7,14.8l-13.2-4.1
	c-5.8,6.6-5.8,6.6-11.5,13.2l6.6,12.4c-6.6,6.6-5.8,6.6-12.4,12.4l-12.4-5.8c-4.9,4.1-4.9,4.9-11.5,9.9l4.1,11.5
	c-7.4,5.8-6.6,4.9-14,10.7l-9.9-7.4c-7.4,4.1-7.4,4.9-14.8,9.1l2.5,11.5c-8.2,4.1-7.4,4.1-15.7,8.2l-8.2-8.2
	c-7.4,3.3-8.2,3.3-15.7,6.6v11.5c-9.1,3.3-8.2,2.5-17.3,5.8l-6.6-9.9c-8.2,2.5-8.2,2.5-16.5,4.1l-1.6,11.5
	c-9.1,1.6-8.2,1.6-17.3,3.3l-5.8-10.7c-8.2,0.8-9.1,0.8-17.3,1.6l-4.1,13.2c-9.1,0-9.1,0-18.1,0l-4.1-11.5
	c-8.2-0.8-9.1-0.8-17.3-0.8l-5.8,12.4c-9.1-1.6-8.2-0.8-17.3-2.5l-2.5-14c-8.2-1.6-9.1-1.6-17.3-4.1l-8.2,11.5
	c-9.1-2.5-8.2-2.5-17.3-4.9v-14c-7.4-3.3-8.2-3.3-16.5-6.6l-9.9,9.9c-8.2-4.1-7.4-4.1-15.7-8.2l2.5-14c-7.4-4.1-7.4-4.9-14.8-9.1
	l-11.5,8.2c-7.4-4.9-7.4-4.9-14.8-10.7l4.1-13.2c-6.6-5.8-6.6-5.8-13.2-11.5l-12.4,6.6c-6.6-6.6-6.6-5.8-12.4-12.4l5.8-12.4
	c-5.8-6.6-5.8-6.6-11.5-13.2l-10.7,6.6c-5.8-7.4-4.9-6.6-10.7-14l7.4-9.9c-4.9-7.4-4.9-8.2-9.1-14.8l-12.4,1.6
	c-4.1-8.2-4.1-7.4-8.2-15.7l8.2-8.2c-3.3-7.4-3.3-8.2-6.6-15.7h-11.5c-3.3-9.1-2.5-8.2-5.8-17.3l9.9-6.6c-2.5-8.2-2.5-8.2-4.1-16.5
	l-11.5-1.6c-1.6-9.1-1.6-8.2-3.3-17.3l10.7-5.8c-0.8-8.2-0.8-9.1-1.6-17.3l-12.4-3.3c0-9.1,0-9.1,0-18.1l11.5-4.1
	c0.8-8.2,0.8-9.1,0.8-17.3l-12.4-5.8c1.6-9.1,0.8-8.2,2.5-17.3l14-2.5c1.6-8.2,1.6-9.1,4.1-17.3l-11.5-8.2c2.5-8.2,2.5-8.2,4.9-16.5
	h14c3.3-7.4,3.3-8.2,6.6-16.5l-9.9-9.9c4.1-8.2,4.1-7.4,8.2-15.7l14,2.5c4.1-7.4,4.9-7.4,9.1-14.8l-8.2-11.5
	c4.9-7.4,4.9-7.4,10.7-14.8l13.2,4.1c5.8-6.6,5.8-6.6,11.5-13.2l-6.6-12.4c6.6-6.6,5.8-6.6,12.4-12.4l12.4,5.8
	c6.6-5.8,6.6-5.8,13.2-11.5l-5.8-11.5c7.4-5.8,6.6-4.9,14-10.7l9.9,7.4c7.4-4.1,7.4-4.9,14.8-9.1l-2.5-12.4
	c8.2-4.1,7.4-4.1,15.7-8.2l8.2,8.2c7.4-3.3,8.2-3.3,15.7-6.6V47.6c9.1-3.3,8.2-2.5,17.3-5.8l7.4,9.1c8.2-1.6,8.2-1.6,16.5-4.1
	l1.6-11.5c9.1-1.6,8.2-1.6,17.3-3.3l5.8,10.7c8.2-0.8,9.1-0.8,17.3-1.6l3.3-11.5c9.1,0,9.1,0,18.1,0l4.1,11.5
	c8.2,0.8,9.1,0.8,17.3,0.8l5.8-12.4c9.1,1.6,8.2,0.8,17.3,2.5l2.5,14c8.2,1.6,9.1,1.6,17.3,4.1l8.2-11.5c9.1,2.5,8.2,2.5,17.3,4.9
	v14c7.4,3.3,8.2,3.3,16.5,6.6l9.9-9.9C530,57.5,529.1,57.5,537.4,61.6z M162.6,279c-11.5,81.6,18.1,164.8,81.5,219.1L314.9,354
	L162.6,279z M380.9,221.4l70.8-144.2c-82.4-17.3-166.4,9.1-224,69.2L380.9,221.4z M642.8,350.7c12.4-80.7-17.3-163.1-79.1-217.5
	l-70.8,143.3L642.8,350.7z M426.9,410l-70.8,143.3c80.7,15.7,163.1-10.7,220.7-69.2L426.9,410z M336.4,282.3
	c-18.1,36.2-3.3,80.7,33.8,98.8c36.2,18.1,80.7,3.3,98.8-33.8c18.1-36.2,3.3-80.7-33.8-98.8S354.4,245.3,336.4,282.3z M526.7,375.4
	c-3.3,6.6-0.8,15.7,6.6,18.9c7.4,3.3,15.7,0.8,18.9-6.6c3.3-6.6,0.8-15.7-6.6-18.9C538.2,365.5,530,368.8,526.7,375.4z M254,241.1
	c-3.3,6.6-0.8,15.7,6.6,18.9c6.6,3.3,15.7,0.8,18.9-6.6c3.3-7.4,0.8-15.7-6.6-18.9S257.2,234.6,254,241.1z"/>
</svg>
