<?xml version="1.0" encoding="utf-8"?>
<!-- Generator: Adobe Illustrator 18.0.0, SVG Export Plug-In . SVG Version: 6.00 Build 0)  -->
<!DOCTYPE svg PUBLIC "-//W3C//DTD SVG 1.1//EN" "http://www.w3.org/Graphics/SVG/1.1/DTD/svg11.dtd">
<svg version="1.1" id="Layer_1" xmlns="http://www.w3.org/2000/svg" xmlns:xlink="http://www.w3.org/1999/xlink" x="0px" y="0px"
	 viewBox="127 36 538 540" enable-background="new 127 36 538 540" xml:space="preserve">
<g>
	<path fill="#28221F" d="M590.7,136.7l-25.4,29c-2.4,2.4-1.2,7.3,1.2,8.5l73.8,37.5c3.6,2.4,3.6,7.3,0,9.7l-33.9,16.9
		c-3.6,1.2-3.6,6-1.2,8.5l54.4,62.9c2.4,3.6,1.2,8.5-3.6,9.7l-39.9,6c-3.6,0-6,3.6-4.8,7.3l25.4,79.8c1.2,3.6-2.4,8.5-7.3,7.3
		l-38.7-9.7c-3.6-1.2-6,1.2-7.3,4.8l-6,81c0,4.8-6,7.3-9.7,3.6l-29-25.4c-2.4-2.4-7.3-1.2-8.5,1.2l-37.5,75c-2.4,3.6-7.3,3.6-9.7,0
		l-16.9-33.9c-1.2-3.6-6-3.6-8.5-1.2l-64.1,53.2c-3.6,2.4-8.5,1.2-9.7-3.6l-6-39.9c0-3.6-3.6-6-7.3-4.8l-79.8,25.4
		c-3.6,1.2-8.5-2.4-7.3-7.3l9.7-38.7c1.2-3.6-1.2-6-4.8-7.3l-82.2-7.3c-4.8,0-7.3-6-3.6-9.7l25.4-29c2.4-2.4,1.2-7.3-1.2-8.5
		l-72.6-36.3c-3.6-2.4-3.6-7.3,0-9.7l33.9-16.9c3.6-1.2,3.6-6,1.2-8.5l-54.4-62.9c-2.4-3.6-1.2-8.5,3.6-9.7l39.9-6
		c3.6,0,6-3.6,4.8-7.3l-25.4-79.8c-1.2-3.6,2.4-8.5,7.3-7.3l38.7,9.7c3.6,1.2,6-1.2,7.3-4.8l7.3-82.2c0-4.8,6-7.3,9.7-3.6l29,25.4
		c2.4,2.4,7.3,1.2,8.5-1.2L303,62.8c2.4-3.6,7.3-3.6,9.7,0l16.9,33.9c1.2,3.6,6,3.6,8.5,1.2L401,43.5c3.6-2.4,8.5-1.2,9.7,3.6
		l6,39.9c0,3.6,3.6,6,7.3,4.8l79.8-25.4c3.6-1.2,8.5,2.4,7.3,7.3l-9.7,38.7c-1.2,3.6,1.2,6,4.8,7.3l82.2,7.3
		C591.9,127,593.1,133,590.7,136.7z M469.8,154.8c-84.7-39.9-185.1-3.6-223.8,79.8c-39.9,84.7-3.6,185.1,79.8,223.8
		c84.7,39.9,185.1,3.6,223.8-79.8C589.5,295.1,553.2,194.7,469.8,154.8z"/>
	<path fill="#28221F" d="M495.2,143.9c-4.8-13.3-42.3-31.4-55.6-26.6c0,0-111.3,88.3-128.2,125.8c-21.8,46-2.4,101.6,44.8,123.4
		c46,21.8,101.6,2.4,123.4-44.8C496.4,285.4,495.2,143.9,495.2,143.9z M411.7,295.1c-4.8,9.7-16.9,14.5-26.6,9.7
		s-14.5-16.9-9.7-26.6s16.9-14.5,26.6-9.7S416.6,285.4,411.7,295.1z"/>
</g>
</svg>
