<?xml version="1.0" encoding="utf-8"?>
<!-- Generator: Adobe Illustrator 18.0.0, SVG Export Plug-In . SVG Version: 6.00 Build 0)  -->
<!DOCTYPE svg PUBLIC "-//W3C//DTD SVG 1.1//EN" "http://www.w3.org/Graphics/SVG/1.1/DTD/svg11.dtd">
<svg version="1.1" id="Layer_1" xmlns="http://www.w3.org/2000/svg" xmlns:xlink="http://www.w3.org/1999/xlink" x="0px" y="0px"
	 viewBox="158 46 607 437" enable-background="new 158 46 607 437" xml:space="preserve">
<g>
	<g>
		<g>
			<path fill="#28221F" d="M734.8,187.2l-6.9,8c-0.7,0.7-0.4,1.8,0.4,2.4l20.1,10.4c1.1,0.6,1.1,2.1,0,2.7l-9.3,4.7
				c-0.9,0.4-1.1,1.5-0.4,2.4l14.9,17.3c0.9,0.9,0.3,2.4-0.9,2.6l-10.9,1.5c-0.9,0.1-1.5,1.1-1.2,2l7,21.7c0.4,1.1-0.7,2.3-1.8,2
				l-10.5-2.8c-0.9-0.3-1.8,0.4-2,1.2l-2,22.6c-0.1,1.2-1.5,1.8-2.6,0.9l-8-6.9c-0.7-0.7-1.8-0.4-2.4,0.4l-10.4,20.1
				c-0.6,1.1-2.1,1.1-2.7,0l-4.7-9.3c-0.4-0.9-1.5-1.1-2.4-0.4l-17.3,14.9c-0.9,0.9-2.4,0.3-2.6-0.9l-1.5-10.8
				c-0.1-0.9-1.1-1.5-2-1.2l-21.7,7c-1.1,0.4-2.3-0.7-2-1.8l2.8-10.5c0.3-0.9-0.4-1.8-1.2-2l-22.6-2c-1.2-0.1-1.8-1.5-0.9-2.6l6.9-8
				c0.7-0.7,0.4-1.8-0.4-2.4l-20.1-10.4c-1.1-0.6-1.1-2.1,0-2.7l9.3-4.7c0.9-0.4,1.1-1.5,0.4-2.4L610.2,233
				c-0.9-0.9-0.3-2.4,0.9-2.6l10.8-1.5c0.9-0.1,1.5-1.1,1.2-2l-7-21.7c-0.4-1.1,0.7-2.3,1.8-2l10.5,2.8c0.9,0.3,1.8-0.4,2-1.2
				l2-22.6c0.1-1.2,1.5-1.8,2.6-0.9l8,6.9c0.7,0.7,1.8,0.4,2.4-0.4l10.4-20.1c0.6-1.1,2.1-1.1,2.7,0l4.7,9.3
				c0.4,0.9,1.5,1.1,2.4,0.4l17.3-14.9c0.9-0.9,2.4-0.3,2.6,0.9l1.5,10.8c0.1,0.9,1.1,1.5,2,1.2l21.7-7c1.1-0.4,2.3,0.7,2,1.8
				l-2.8,10.5c-0.3,0.9,0.4,1.8,1.2,2l22.6,2C734.8,184.8,735.4,186.4,734.8,187.2z M701.6,192.3c-23-10.9-50.5-1.1-61.3,21.9
				c-10.9,23-1.1,50.5,21.9,61.3c23,10.9,50.5,1.1,61.3-21.9C734.3,230.7,724.5,203.2,701.6,192.3z"/>
			<path fill="#28221F" d="M708.7,189.4c-1.2-3.5-11.7-8.4-15.2-7.1c0,0-30.3,24.3-35.1,34.3c-6.1,12.8-0.6,27.9,12.1,34
				c12.8,6.1,27.9,0.6,34-12.1C709,228.2,708.7,189.4,708.7,189.4z M685.8,230.7c-1.2,2.7-4.5,3.8-7.1,2.6c-2.7-1.2-3.8-4.5-2.6-7.1
				c1.2-2.7,4.5-3.8,7.1-2.6C685.9,224.7,687,227.9,685.8,230.7z"/>
			<path fill="#28221F" d="M380.3,203.5l-6.7,7.3c0.6,2.9,0.9,4.2,1.4,7.1l9.1,4.1c0.1,3.6,0.1,4.4,0.3,8l-8.7,4.9
				c-0.4,3.1-0.6,4.2-0.9,7.3l7.3,6.7c-0.9,3.5-1.1,4.2-2.1,7.7l-9.8,2c-1.2,2.8-1.8,3.8-3.1,6.6l4.9,8.7c-2.1,3.1-2.4,3.6-4.5,6.7
				l-10-1.1c-2.1,2.3-2.8,3.1-4.9,5.3l2,9.8c-2.9,2.3-3.4,2.7-6.3,5l-9.1-4.2c-2.7,1.5-3.6,2.1-6.3,3.6l-1.1,10
				c-3.5,1.2-4.1,1.5-7.6,2.8l-7.3-6.7c-2.9,0.6-4.2,0.9-7.1,1.4l-4.1,9.1c-3.6,0.1-4.4,0.1-8,0.3l-4.9-8.7
				c-3.1-0.4-4.2-0.6-7.3-0.9l-6.7,7.3c-3.5-0.9-4.2-1.1-7.7-2.1l-2-9.8c-2.8-1.2-3.8-1.8-6.6-3.1l-8.7,4.9
				c-3.1-2.1-3.6-2.4-6.7-4.5l1.1-10c-2.3-2.1-3.1-2.8-5.3-4.9l-9.8,2c-2.3-2.9-2.7-3.4-5-6.3l4.2-9.1c-1.5-2.7-2.1-3.6-3.6-6.3
				l-10-1.1c-1.2-3.5-1.5-4.1-2.8-7.6l6.7-7.3c-0.6-2.9-0.9-4.2-1.4-7.1l-9.1-4.1c-0.1-3.6-0.1-4.4-0.3-8l8.7-4.9
				c0.4-3.1,0.6-4.2,0.9-7.3l-7.3-6.7c0.9-3.5,1.1-4.2,2.1-7.7l9.8-2c1.2-2.8,1.8-3.8,3.1-6.6l-4.9-8.7c2.1-3.1,2.4-3.6,4.5-6.7
				l10,1.1c2.1-2.3,2.8-3.1,4.9-5.3l-2-9.8c2.9-2.3,3.4-2.7,6.3-5l9.1,4.2c2.7-1.5,3.6-2.1,6.3-3.6l1.1-10c3.5-1.2,4.1-1.5,7.6-2.8
				l7.3,6.7c2.9-0.6,4.2-0.9,7.1-1.4l4.1-9.1c3.6-0.1,4.4-0.1,8-0.3l4.9,8.7c3.1,0.4,4.2,0.6,7.3,0.9l6.7-7.3
				c3.5,0.9,4.2,1.1,7.7,2.1l2,9.8c2.8,1.2,3.8,1.8,6.6,3.1l8.7-4.9c3.1,2.1,3.6,2.4,6.7,4.5l-1.1,10c2.3,2.1,3.1,2.8,5.3,4.9l9.8-2
				c2.3,2.9,2.7,3.4,5,6.3l-4.2,9.1c1.5,2.7,2.1,3.6,3.6,6.3l10,1.1C378.8,199.4,379.1,200.2,380.3,203.5z M302.7,220.9l48.9-17.9
				c4.4-1.5,6.1-6.9,3.5-10.8c-14.1-21.6-39.6-33.2-64.7-30.3c-4.7,0.6-7.6,5.3-5.9,9.7L302.7,220.9z M336.6,286.2
				c20.8-14,32.2-38.6,29.5-63.6c-0.6-4.7-5.3-7.6-9.7-6.1l-48.4,17.9l17.8,48.1C327.3,287.1,332.6,288.8,336.6,286.2z M242,268.6
				c14.3,20.8,39.2,32,64.3,28.9c4.7-0.6,7.4-5.3,5.9-9.7l-17.9-48.1l-48.7,18.1C241.1,259.4,239.3,264.7,242,268.6z M260.1,173
				c-21.7,14.4-33,39.9-29.6,65.4c0.6,4.7,5.3,7.4,9.7,5.9l49.1-18.2l-18.4-49.5C269.3,172.2,264,170.6,260.1,173z"/>
			<circle fill="#28221F" cx="299.7" cy="229.8" r="42.2"/>
			<path fill="#28221F" d="M552.3,67.5l-0.9,5.6c2.9,1.7,3.1,1.8,6.1,3.5l4.5-3.4c2.9,2.1,2.8,2,5.9,4.2l-1.7,5.3
				c2.6,2.1,2.8,2.3,5.3,4.5l5-2.7c2.7,2.6,2.6,2.4,5,5l-2.6,4.9c2.3,2.6,2.4,2.7,4.7,5.2l4.7-1.7c2.3,2.9,2.1,2.8,4.2,5.8l-2.8,3.8
				c1.8,2.9,2,3.1,3.6,5.9l4.7-0.9c1.7,3.2,1.5,3.1,3.4,6.3l-3.4,3.4c1.4,3.1,1.4,3.2,2.8,6.5l4.7-0.1c1.1,3.5,1.1,3.4,2.3,6.7
				l-3.9,2.8c0.9,3.4,0.9,3.5,1.7,6.7l4.7,0.6c0.7,3.6,0.6,3.4,1.2,7l-4.2,2.3c0.3,3.4,0.3,3.5,0.7,7l4.7,1.2c0.1,3.6,0,3.5,0.1,7.1
				l-4.7,1.5c-0.3,3.4-0.3,3.6-0.4,7l4.9,2.4c-0.6,3.6-0.4,3.5-0.9,7.1l-5.6,0.9c-0.7,3.2-0.9,3.5-1.5,6.7l4.7,3.2
				c-1.1,3.5-0.9,3.4-2.1,6.9h-5.6c-1.2,3.1-1.2,3.4-2.6,6.5l4.1,3.9c-1.7,3.2-1.5,3.1-3.2,6.5l-5.6-0.9c-1.7,2.9-1.8,3.1-3.5,6.1
				l3.4,4.5c-2.1,2.9-2,2.8-4.2,5.9l-5.3-1.7c-2.1,2.6-2.3,2.8-4.5,5.3l2.7,5c-2.6,2.7-2.4,2.6-5,5l-4.9-2.6
				c-2.6,2.3-2.7,2.4-5.2,4.7l1.7,4.7c-2.9,2.3-2.8,2.1-5.8,4.2l-3.8-2.8c-2.9,1.8-3.1,2-5.9,3.6l0.9,4.7c-3.2,1.7-3.1,1.5-6.3,3.4
				l-3.4-3.4c-3.1,1.4-3.2,1.4-6.5,2.8l0.1,4.7c-3.5,1.1-3.4,1.1-6.7,2.3l-2.8-3.9c-3.4,0.9-3.5,0.9-6.7,1.7l-0.6,4.7
				c-3.6,0.7-3.4,0.6-7,1.2l-2.3-4.2c-3.4,0.3-3.5,0.3-7,0.7l-1.2,4.7c-3.6,0.1-3.5,0-7.1,0.1l-1.5-4.7c-3.4-0.3-3.6-0.3-7-0.4
				l-2.4,4.9c-3.6-0.6-3.5-0.4-7.1-0.9l-0.9-5.6c-3.2-0.7-3.5-0.9-6.7-1.5l-3.2,4.7c-3.5-1.1-3.4-0.9-6.9-2.1v-5.6
				c-3.1-1.2-3.4-1.2-6.5-2.6l-3.9,4.1c-3.2-1.7-3.1-1.5-6.5-3.2l0.9-5.6c-2.9-1.7-3.1-1.8-6.1-3.5l-4.5,3.4c-2.9-2.1-2.8-2-5.9-4.2
				l1.7-5.3c-2.6-2.1-2.8-2.3-5.3-4.5l-5,2.7c-2.7-2.6-2.6-2.4-5-5l2.6-4.9c-2.3-2.6-2.4-2.7-4.7-5.2l-4.7,1.7
				c-2.3-2.9-2.1-2.8-4.2-5.8l2.8-3.8c-1.8-2.9-2-3.1-3.6-5.9l-4.7,0.9c-1.7-3.2-1.5-3.1-3.4-6.3l3.4-3.4c-1.4-3.1-1.4-3.2-2.8-6.5
				l-4.7,0.1c-1.1-3.5-1.1-3.4-2.3-6.7l3.9-2.8c-0.9-3.4-0.9-3.5-1.7-6.7l-4.7-0.6c-0.7-3.6-0.6-3.4-1.2-7l4.2-2.3
				c-0.3-3.4-0.3-3.5-0.7-7l-4.9-1.2c-0.1-3.6,0-3.5-0.1-7.1l4.7-1.5c0.3-3.4,0.3-3.6,0.4-7l-4.9-2.4c0.6-3.6,0.4-3.5,0.9-7.1
				l5.6-0.9c0.7-3.2,0.9-3.5,1.5-6.7l-4.7-3.2c1.1-3.5,0.9-3.4,2.1-6.9h5.6c1.2-3.1,1.2-3.4,2.6-6.5l-4.1-3.9
				c1.7-3.2,1.5-3.1,3.2-6.5l5.6,0.9c1.7-2.9,1.8-3.1,3.5-6.1l-3.4-4.5c2.1-2.9,2-2.8,4.2-5.9l5.3,1.7c2.1-2.6,2.3-2.8,4.5-5.3
				l-2.7-5c2.6-2.7,2.4-2.6,5-5l4.9,2.6c2.6-2.3,2.7-2.4,5.2-4.7l-1.7-4.7c2.9-2.3,2.8-2.1,5.8-4.2l3.8,2.8c2.9-1.8,3.1-2,5.9-3.6
				l-0.9-4.7c3.2-1.7,3.1-1.5,6.3-3.4l3.4,3.4c3.1-1.4,3.2-1.4,6.5-2.8l-0.1-4.7c3.5-1.1,3.4-1.1,6.7-2.3l2.8,3.9
				c3.4-0.9,3.5-0.9,6.7-1.7l0.6-4.7c3.6-0.7,3.4-0.6,7-1.2l2.3,4.2c3.4-0.3,3.5-0.3,7-0.7l1.2-4.7c3.6-0.1,3.5,0,7.1-0.1l1.5,4.7
				c3.4,0.3,3.6,0.3,7,0.4l2.4-4.9c3.6,0.6,3.5,0.4,7.1,0.9l0.9,5.6c3.2,0.7,3.5,0.9,6.7,1.5l3.2-4.7c3.5,1.1,3.4,0.9,6.9,2.1v5.6
				c3.1,1.2,3.4,1.2,6.5,2.6l3.9-4.1C549.2,66,549.1,65.8,552.3,67.5z M401.8,154.9c-4.7,32.6,7.3,66.1,32.8,88l28.5-57.8
				L401.8,154.9z M489.4,131.8l28.7-58.1c-33-6.9-66.8,3.6-90,27.8L489.4,131.8z M594.7,183.6c4.9-32.6-7.1-65.6-31.9-87.4
				l-28.5,57.7L594.7,183.6z M508.1,207.3l-28.4,57.5c32.3,6.3,65.7-4.2,88.6-27.8L508.1,207.3z M471.7,156
				c-7.3,14.7-1.2,32.4,13.5,39.7c14.7,7.3,32.4,1.2,39.7-13.5c7.3-14.7,1.2-32.4-13.5-39.7C496.7,135.3,478.9,141.3,471.7,156z
				 M548,193.7c-1.4,2.8-0.3,6.2,2.6,7.6c2.8,1.4,6.2,0.3,7.6-2.6c1.4-2.8,0.3-6.2-2.6-7.6S549.3,190.9,548,193.7z M438.4,139.6
				c-1.4,2.8-0.3,6.2,2.6,7.6c2.8,1.4,6.2,0.3,7.6-2.6c1.4-2.8,0.3-6.2-2.6-7.6C443.2,135.7,439.8,136.9,438.4,139.6z"/>
		</g>
	</g>
	<rect x="153.6" y="336.6" fill="none" width="658.7" height="139"/>
	<g enable-background="new    ">
		<path fill="#28221F" d="M197.2,347.2h79.5l-5.2,23.1h-47.8l-5.5,27.9h39.4l-5,23.1h-38.8l-10.5,53.7h-31L197.2,347.2z"/>
		<path fill="#28221F" d="M389.1,388.6c0,45.1-22.5,89.5-71.1,89.5c-31.4,0-44.3-16.4-44.3-44c0-45.3,22.5-89,70.9-89
			C375.9,345,389.1,360.9,389.1,388.6z M306.9,430.6c0,13.2,4,23.7,17.4,23.7c21.9,0,31.7-37.1,31.7-62.7c0-13-4.2-23-17.4-23
			C316.6,368.7,306.9,405.2,306.9,430.6z"/>
		<path fill="#28221F" d="M408,347.2h95.2l-4.9,23.2h-30l-20.3,104.7h-31.1l20.1-104.7H408L408,347.2L408,347.2z"/>
		<path fill="#28221F" d="M539.9,347.2h26.4l24.5,127.9H559l-4.8-30.6h-37.5l-16.4,32.1l-30.2-5.2L539.9,347.2z M545.8,386.6
			l-17.4,34.8h22.2C548.5,408.4,546.9,395.2,545.8,386.6z"/>
		<path fill="#28221F" d="M721.8,426.4c0.7-4.8,2.7-15.3,4.6-23.7c-4.4,8.4-9.8,19.1-12,23.1l-28.1,49.3H662l-9.2-48.7
			c-0.7-4-2.7-14.9-3.8-23c-1.2,8.2-2.5,18.7-3.3,22.4l-9.2,49.9l-30.8-4.6l30.6-123.9h26.8l14.1,79c0.6,3.4,1.8,10.7,2.3,15.3
			c2.3-4.6,5.5-11.7,7.7-15.3l44.7-79h26.7l-14.4,127.9h-31.4L721.8,426.4z"/>
	</g>
</g>
</svg>
