<?xml version="1.0" encoding="utf-8"?>
<!-- Generator: Adobe Illustrator 18.0.0, SVG Export Plug-In . SVG Version: 6.00 Build 0)  -->
<!DOCTYPE svg PUBLIC "-//W3C//DTD SVG 1.1//EN" "http://www.w3.org/Graphics/SVG/1.1/DTD/svg11.dtd">
<svg version="1.1" id="Layer_1" xmlns="http://www.w3.org/2000/svg" xmlns:xlink="http://www.w3.org/1999/xlink" x="0px" y="0px"
	 viewBox="0 0 792 612" enable-background="new 0 0 792 612" xml:space="preserve">
<g>
	<g>
		<g>
			<path fill="#FFFFFF" d="M674.3,211.4l-7.3,8.5c-0.8,0.8-0.5,1.9,0.5,2.6l21.3,11c1.2,0.6,1.2,2.2,0,2.9l-9.8,5
				c-0.9,0.5-1.2,1.6-0.5,2.6l15.8,18.3c0.9,0.9,0.3,2.6-1,2.7l-11.4,1.6c-1,0.2-1.6,1.2-1.3,2.1l7.4,23c0.5,1.2-0.8,2.4-1.9,2.1
				l-11.1-2.9c-0.9-0.3-1.9,0.5-2.1,1.3l-2.1,24c-0.2,1.3-1.6,1.9-2.7,1l-8.5-7.3c-0.8-0.8-1.9-0.5-2.6,0.5l-11,21.2
				c-0.6,1.2-2.2,1.2-2.9,0l-5-9.8c-0.5-0.9-1.6-1.2-2.6-0.5L617.1,337c-0.9,0.9-2.6,0.3-2.7-1l-1.6-11.4c-0.2-1-1.2-1.6-2.1-1.3
				l-23,7.4c-1.2,0.5-2.4-0.8-2.1-1.9l2.9-11.1c0.3-0.9-0.5-1.9-1.3-2.1l-24-2.1c-1.3-0.2-1.9-1.6-1-2.7l7.3-8.5
				c0.8-0.8,0.5-1.9-0.5-2.6l-21.3-11c-1.2-0.6-1.2-2.2,0-2.9l9.8-5c0.9-0.5,1.2-1.6,0.5-2.6l-15.8-18.3c-0.9-0.9-0.3-2.6,1-2.7
				l11.4-1.6c1-0.2,1.6-1.2,1.3-2.1l-7.4-23c-0.5-1.2,0.8-2.4,1.9-2.1l11.1,2.9c0.9,0.3,1.9-0.5,2.1-1.3l2.1-24
				c0.2-1.3,1.6-1.9,2.7-1l8.5,7.3c0.8,0.8,1.9,0.5,2.6-0.5l11-21.3c0.6-1.2,2.2-1.2,2.9,0l5,9.8c0.5,0.9,1.6,1.2,2.6,0.5l18.3-15.8
				c0.9-0.9,2.6-0.3,2.7,1l1.6,11.4c0.2,1,1.2,1.6,2.1,1.3l23-7.4c1.2-0.5,2.4,0.8,2.1,1.9l-2.9,11.1c-0.3,0.9,0.5,1.9,1.3,2.1
				l24,2.1C674.4,208.9,675.1,210.5,674.3,211.4z M639.2,216.7c-24.4-11.6-53.6-1.2-65,23.2c-11.6,24.4-1.2,53.6,23.2,65
				c24.4,11.6,53.6,1.2,65-23.2C673.9,257.6,663.5,228.3,639.2,216.7z"/>
			<path fill="#FFFFFF" d="M646.6,213.8c-1.3-3.7-12.4-8.9-16.1-7.6c0,0-32.2,25.8-37.2,36.4c-6.4,13.5-0.6,29.6,12.8,36
				c13.5,6.4,29.6,0.6,36-12.8C647.1,254.9,646.6,213.8,646.6,213.8z M622.4,257.6c-1.3,2.9-4.8,4-7.6,2.7c-2.9-1.3-4-4.8-2.7-7.6
				c1.3-2.9,4.8-4,7.6-2.7C622.5,251.2,623.7,254.6,622.4,257.6z"/>
			<path fill="#FFFFFF" d="M298.4,228.7l-7.1,7.7c0.6,3.1,0.9,4.5,1.5,7.6l9.7,4.3c0.2,3.9,0.2,4.6,0.3,8.5l-9.2,5.2
				c-0.5,3.2-0.6,4.5-0.9,7.7l7.7,7.1c-1,3.7-1.2,4.5-2.2,8.2l-10.4,2.1c-1.3,2.9-1.9,4-3.2,7l5.2,9.2c-2.2,3.2-2.6,3.9-4.8,7.1
				l-10.6-1.2c-2.2,2.4-2.9,3.2-5.2,5.6l2.1,10.4c-3.1,2.4-3.6,2.9-6.7,5.3l-9.7-4.5c-2.9,1.6-3.9,2.2-6.7,3.9l-1.2,10.6
				c-3.7,1.3-4.3,1.6-8,2.9l-7.7-7.1c-3.1,0.6-4.5,0.9-7.6,1.5l-4.3,9.7c-3.9,0.2-4.6,0.2-8.5,0.3l-5.2-9.2
				c-3.2-0.5-4.5-0.6-7.7-0.9l-7.1,7.7c-3.7-1-4.5-1.2-8.2-2.2l-2.1-10.4c-2.9-1.3-4-1.9-7-3.2l-9.2,5.2c-3.2-2.2-3.9-2.6-7.1-4.8
				l1.2-10.6c-2.4-2.2-3.2-2.9-5.6-5.2l-10.4,2.1c-2.4-3.1-2.9-3.6-5.3-6.7l4.5-9.7c-1.6-2.9-2.2-3.9-3.9-6.7l-10.6-1.2
				c-1.3-3.7-1.6-4.3-2.9-8l7.1-7.7c-0.6-3.1-0.9-4.5-1.5-7.6l-9.7-4.3c-0.2-3.9-0.2-4.6-0.3-8.5l9.2-5.2c0.5-3.2,0.6-4.5,0.9-7.7
				l-7.7-7.1c1-3.7,1.2-4.5,2.2-8.2l10.4-2.1c1.3-2.9,1.9-4,3.2-7l-5.2-9.2c2.2-3.2,2.6-3.9,4.8-7.1l10.6,1.2
				c2.2-2.4,2.9-3.2,5.2-5.6l-2.1-10.4c3.1-2.4,3.6-2.9,6.7-5.3l9.7,4.5c2.9-1.6,3.9-2.2,6.7-3.9l1.2-10.6c3.7-1.3,4.3-1.6,8-2.9
				l7.7,7.1c3.1-0.6,4.5-0.9,7.6-1.5l4.3-9.7c3.9-0.2,4.6-0.2,8.5-0.3l5.2,9.2c3.2,0.5,4.5,0.6,7.7,0.9l7.1-7.7
				c3.7,1,4.5,1.2,8.2,2.2l2.1,10.4c2.9,1.3,4,1.9,7,3.2l9.2-5.2c3.2,2.2,3.9,2.6,7.1,4.8l-1.2,10.6c2.4,2.2,3.2,2.9,5.6,5.2
				l10.4-2.1c2.4,3.1,2.9,3.6,5.3,6.7l-4.5,9.7c1.6,2.9,2.2,3.9,3.9,6.7l10.6,1.2C296.8,224.3,297.1,225.1,298.4,228.7z
				 M216.1,247.1l51.8-19c4.6-1.6,6.4-7.3,3.7-11.4c-15-22.9-42-35.3-68.6-32.2c-4.9,0.6-8,5.6-6.3,10.3L216.1,247.1z M252,316.4
				c22-14.9,34.1-40.9,31.2-67.4c-0.6-4.9-5.6-8-10.3-6.4l-51.4,19l18.9,51C242.2,317.4,247.8,319.2,252,316.4z M151.6,297.7
				c15.2,22,41.5,34,68.2,30.7c4.9-0.6,7.9-5.6,6.3-10.3l-19-51l-51.7,19.2C150.7,287.9,148.8,293.5,151.6,297.7z M170.9,196.4
				c-22.9,15.2-35,42.3-31.4,69.4c0.6,4.9,5.6,7.9,10.3,6.3l52.1-19.3l-19.5-52.5C180.7,195.5,175,193.7,170.9,196.4z"/>
			<circle fill="#FFFFFF" cx="212.8" cy="256.5" r="44.8"/>
			<path fill="#FFFFFF" d="M480.8,84.4l-0.9,6c3.1,1.8,3.2,1.9,6.4,3.7l4.8-3.6c3.1,2.2,2.9,2.1,6.3,4.5l-1.8,5.6
				c2.7,2.2,2.9,2.4,5.6,4.8l5.3-2.9c2.9,2.7,2.7,2.6,5.3,5.3l-2.7,5.2c2.4,2.7,2.6,2.9,5,5.5l5-1.8c2.4,3.1,2.2,2.9,4.5,6.1l-2.9,4
				c1.9,3.1,2.1,3.2,3.9,6.3l5-0.9c1.8,3.4,1.6,3.2,3.6,6.7l-3.6,3.6c1.5,3.2,1.5,3.4,2.9,6.9l5-0.2c1.2,3.7,1.2,3.6,2.4,7.1
				l-4.2,2.9c0.9,3.6,0.9,3.7,1.8,7.1l5,0.6c0.8,3.9,0.6,3.6,1.3,7.4l-4.5,2.4c0.3,3.6,0.3,3.7,0.8,7.4l5,1.3c0.2,3.9,0,3.7,0.2,7.6
				l-5,1.6c-0.3,3.6-0.3,3.9-0.5,7.4l5.2,2.6c-0.6,3.9-0.5,3.7-1,7.6l-6,1c-0.8,3.4-0.9,3.7-1.6,7.1l5,3.4c-1.2,3.7-1,3.6-2.2,7.3
				h-6c-1.3,3.2-1.3,3.6-2.7,6.9l4.3,4.2c-1.8,3.4-1.6,3.2-3.4,6.9l-6-0.9c-1.8,3.1-1.9,3.2-3.7,6.4l3.6,4.8
				c-2.2,3.1-2.1,2.9-4.5,6.3l-5.6-1.8c-2.2,2.7-2.4,2.9-4.8,5.6l2.9,5.3c-2.7,2.9-2.6,2.7-5.3,5.3l-5.2-2.7c-2.7,2.4-2.9,2.6-5.5,5
				l1.8,4.9c-3.1,2.4-2.9,2.2-6.1,4.5l-4-2.9c-3.1,1.9-3.2,2.1-6.3,3.9l0.9,5c-3.4,1.8-3.2,1.6-6.7,3.6l-3.6-3.6
				c-3.2,1.5-3.4,1.5-6.9,2.9l0.2,5c-3.7,1.2-3.6,1.2-7.1,2.4l-2.9-4.2c-3.6,0.9-3.7,0.9-7.1,1.8l-0.6,5c-3.9,0.8-3.6,0.6-7.4,1.3
				l-2.4-4.5c-3.6,0.3-3.7,0.3-7.4,0.8l-1.3,5c-3.9,0.2-3.7,0-7.6,0.2l-1.6-5c-3.6-0.3-3.9-0.3-7.4-0.5l-2.6,5.2
				c-3.9-0.6-3.7-0.5-7.6-1l-1-6c-3.4-0.8-3.7-0.9-7.1-1.6l-3.4,4.9c-3.7-1.2-3.6-1-7.3-2.2v-6c-3.2-1.3-3.6-1.3-6.9-2.7l-4.2,4.3
				c-3.4-1.8-3.2-1.6-6.9-3.4l0.9-6c-3.1-1.8-3.2-1.9-6.4-3.7l-4.8,3.6c-3.1-2.2-2.9-2.1-6.3-4.5l1.8-5.6c-2.7-2.2-2.9-2.4-5.6-4.8
				l-5.3,2.9c-2.9-2.7-2.7-2.6-5.3-5.3l2.7-5.2c-2.4-2.7-2.6-2.9-5-5.5l-4.9,1.8c-2.4-3.1-2.2-2.9-4.5-6.1l2.9-4
				c-1.9-3.1-2.1-3.2-3.9-6.3l-5,0.9c-1.8-3.4-1.6-3.2-3.6-6.7l3.6-3.6c-1.5-3.2-1.5-3.4-2.9-6.9l-5,0.2c-1.2-3.7-1.2-3.6-2.4-7.1
				l4.2-2.9c-0.9-3.6-0.9-3.7-1.8-7.1l-5-0.6c-0.8-3.9-0.6-3.6-1.3-7.4l4.5-2.4c-0.3-3.6-0.3-3.7-0.8-7.4l-5-1.3
				c-0.2-3.9,0-3.7-0.2-7.6l5-1.6c0.3-3.6,0.3-3.9,0.5-7.4l-5.2-2.6c0.6-3.9,0.5-3.7,1-7.6l6-1c0.8-3.4,0.9-3.7,1.6-7.1l-4.9-3.4
				c1.2-3.7,1-3.6,2.2-7.3h6c1.3-3.2,1.3-3.6,2.7-6.9l-4.3-4.2c1.8-3.4,1.6-3.2,3.4-6.9l6,0.9c1.8-3.1,1.9-3.2,3.7-6.4l-3.6-4.8
				c2.2-3.1,2.1-2.9,4.5-6.3l5.6,1.8c2.2-2.7,2.4-2.9,4.8-5.6l-2.9-5.3c2.7-2.9,2.6-2.7,5.3-5.3l5.2,2.7c2.7-2.4,2.9-2.6,5.5-5
				l-1.8-4.9c3.1-2.4,2.9-2.2,6.1-4.5l4,2.9c3.1-1.9,3.2-2.1,6.3-3.9l-0.9-5c3.4-1.8,3.2-1.6,6.7-3.6l3.6,3.6
				c3.2-1.5,3.4-1.5,6.9-2.9l-0.2-5c3.7-1.2,3.6-1.2,7.1-2.4L391,80c3.6-0.9,3.7-0.9,7.1-1.8l0.6-5c3.9-0.8,3.6-0.6,7.4-1.3l2.4,4.5
				c3.6-0.3,3.7-0.3,7.4-0.8l1.3-5c3.9-0.2,3.7,0,7.6-0.2l1.6,5c3.6,0.3,3.9,0.3,7.4,0.5l2.6-5.2c3.9,0.6,3.7,0.5,7.6,1l1,6
				c3.4,0.8,3.7,0.9,7.1,1.6l3.4-4.9c3.7,1.2,3.6,1,7.3,2.2v6c3.2,1.3,3.6,1.3,6.9,2.7l4.2-4.3C477.5,82.8,477.4,82.6,480.8,84.4z
				 M321.2,177.1c-5,34.6,7.7,70.2,34.8,93.4l30.2-61.3L321.2,177.1z M414.1,152.6L444.5,91c-35-7.3-70.8,3.9-95.4,29.5L414.1,152.6
				z M525.7,207.5c5.2-34.6-7.6-69.5-33.8-92.7L461.7,176L525.7,207.5z M433.9,232.7l-30.1,61c34.3,6.7,69.7-4.5,94-29.5
				L433.9,232.7z M395.3,178.4c-7.7,15.6-1.3,34.4,14.3,42.2s34.4,1.3,42.2-14.3s1.3-34.4-14.3-42.2
				C421.8,156.3,402.9,162.8,395.3,178.4z M476.1,218.2c-1.5,2.9-0.3,6.6,2.7,8c2.9,1.5,6.6,0.3,8-2.7c1.5-2.9,0.3-6.6-2.7-8
				C481.2,214.1,477.7,215.3,476.1,218.2z M360,160.9c-1.5,2.9-0.3,6.6,2.7,8c2.9,1.5,6.6,0.3,8-2.7c1.5-2.9,0.3-6.6-2.7-8
				C365.1,156.8,361.4,158,360,160.9z"/>
		</g>
	</g>
	<g enable-background="new    ">
		<path fill="#FFFFFF" d="M104.1,381.2h84.3l-5.5,24.5h-50.7l-5.9,29.6h41.8l-5.3,24.5h-41.1l-11.1,56.9H77.7L104.1,381.2z"/>
		<path fill="#FFFFFF" d="M307.1,425c0,47.9-23.9,94.9-75.4,94.9c-33.3,0-47-17.4-47-46.6c0-48,23.9-94.4,75.2-94.4
			C293.1,378.7,307.1,395.6,307.1,425z M219.9,469.6c0,14,4.3,25.1,18.5,25.1c23.3,0,33.6-39.3,33.6-66.5c0-13.8-4.5-24.4-18.5-24.4
			C230.2,403.8,219.9,442.6,219.9,469.6z"/>
		<path fill="#FFFFFF" d="M326.5,381.2h100.9l-5.3,24.5h-31.9l-21.5,111.1h-33L357,405.7h-30.6L326.5,381.2L326.5,381.2z"/>
		<path fill="#FFFFFF" d="M465.8,381.2h28l26,135.7h-33.6l-5.1-32.4h-39.8l-17.4,34l-32-5.5L465.8,381.2z M472.1,422.9l-18.5,36.9
			h23.5C474.9,446,473.3,432.1,472.1,422.9z"/>
		<path fill="#FFFFFF" d="M658.2,465.1c0.8-5.1,2.9-16.2,4.9-25.1c-4.6,8.9-10.4,20.3-12.8,24.5l-29.8,52.3h-25.8l-9.7-51.7
			c-0.8-4.3-2.9-15.8-4-24.4c-1.2,8.7-2.6,19.9-3.5,23.7l-9.7,52.9l-32.6-4.9L567.6,381H596l15,83.8c0.6,3.6,1.9,11.4,2.4,16.2
			c2.4-4.9,5.9-12.4,8.1-16.2l47.4-83.8H697l-15.2,135.7h-33.3L658.2,465.1z"/>
	</g>
</g>
</svg>
