<?xml version="1.0" encoding="utf-8"?>
<!-- Generator: Adobe Illustrator 18.0.0, SVG Export Plug-In . SVG Version: 6.00 Build 0)  -->
<!DOCTYPE svg PUBLIC "-//W3C//DTD SVG 1.1//EN" "http://www.w3.org/Graphics/SVG/1.1/DTD/svg11.dtd">
<svg version="1.1" id="Layer_1" xmlns="http://www.w3.org/2000/svg" xmlns:xlink="http://www.w3.org/1999/xlink" x="0px" y="0px"
	 viewBox="26 220 704.5 156" enable-background="new 26 220 704.5 156" xml:space="preserve">
<g>
	<g>
		<g>
			<path fill="#28221F" d="M325.2,299.7l-3.9,4.5c-0.3,0.5-0.3,1,0.3,1.3l11.3,5.8c0.6,0.3,0.6,1.2,0,1.5l-5.2,2.7
				c-0.5,0.3-0.6,0.9-0.3,1.3l8.3,9.7c0.5,0.5,0.2,1.3-0.6,1.3l-6.1,0.9c-0.6,0-0.9,0.6-0.8,1l3.9,12.2c0.2,0.6-0.5,1.2-1,1l-6-1.6
				c-0.5-0.2-1,0.2-1,0.8l-1.2,12.7c0,0.8-0.9,1-1.3,0.6l-4.5-3.9c-0.5-0.3-1-0.3-1.3,0.3l-5.8,11.3c-0.3,0.6-1.2,0.6-1.5,0
				l-2.7-5.2c-0.3-0.5-0.9-0.6-1.3-0.3l-9.7,8.3c-0.5,0.5-1.3,0.2-1.3-0.6l-0.9-6.1c0-0.6-0.6-0.9-1-0.8l-12.2,3.9
				c-0.6,0.2-1.2-0.5-1-1l1.6-6c0.2-0.5-0.2-1-0.8-1l-12.7-1.2c-0.8,0-1-0.9-0.6-1.3l3.9-4.5c0.3-0.5,0.3-1-0.3-1.3l-11.3-5.8
				c-0.6-0.3-0.6-1.2,0-1.5l5.2-2.7c0.5-0.3,0.6-0.9,0.3-1.3l-8.4-9.7c-0.5-0.5-0.2-1.3,0.6-1.3l6.1-0.9c0.6,0,0.9-0.6,0.8-1
				l-3.9-12.2c-0.2-0.6,0.5-1.2,1-1l6,1.6c0.5,0.2,1-0.2,1-0.8l1.2-12.7c0-0.8,0.9-1,1.3-0.6l4.5,3.9c0.5,0.3,1,0.3,1.3-0.3
				l5.8-11.3c0.3-0.6,1.2-0.6,1.5,0l2.7,5.2c0.3,0.5,0.9,0.6,1.3,0.3l9.7-8.4c0.5-0.5,1.3-0.2,1.3,0.6l0.9,6.1c0,0.6,0.6,0.9,1,0.8
				l12.2-3.9c0.6-0.2,1.2,0.5,1,1l-1.6,6c-0.2,0.5,0.2,1,0.8,1l12.7,1.2C325.3,298.3,325.6,299.2,325.2,299.7z M306.5,302.5
				c-12.9-6.1-28.5-0.6-34.6,12.4c-6.1,12.9-0.6,28.5,12.4,34.6c12.9,6.1,28.5,0.6,34.6-12.4S319.4,308.7,306.5,302.5z"/>
			<path fill="#28221F" d="M310.4,300.8c-0.8-1.9-6.6-4.8-8.7-4c0,0-17.1,13.7-19.8,19.3c-3.4,7.1-0.3,15.6,6.9,19
				c7.1,3.4,15.6,0.3,19-6.9C310.7,322.7,310.4,300.8,310.4,300.8z M297.6,324c-0.8,1.5-2.6,2.2-4,1.5s-2.2-2.6-1.5-4s2.6-2.2,4-1.5
				S298.3,322.6,297.6,324z"/>
			<path fill="#28221F" d="M125.7,308.9l-3.9,4.2c0.3,1.6,0.5,2.4,0.8,4l5,2.4c0.2,2.1,0.2,2.4,0.2,4.5l-4.9,2.7
				c-0.2,1.8-0.3,2.4-0.5,4l4.2,3.9c-0.6,1.9-0.6,2.4-1.2,4.3l-5.5,1c-0.8,1.6-1,2.2-1.8,3.7l2.9,5c-1.2,1.8-1.3,2.1-2.6,3.7
				l-5.6-0.6c-1.2,1.3-1.6,1.8-2.9,2.9l1,5.5c-1.6,1.3-1.9,1.5-3.6,2.9l-5-2.4c-1.5,0.9-2.1,1.2-3.6,2.1l-0.6,5.6
				c-1.9,0.8-2.2,0.9-4.3,1.6l-4.2-3.9c-1.6,0.3-2.4,0.5-4,0.8l-2.4,5c-2.1,0.2-2.4,0.2-4.5,0.2l-2.7-5c-1.8-0.2-2.4-0.3-4-0.5
				l-3.9,4.2c-1.9-0.6-2.4-0.6-4.3-1.2l-1-5.5c-1.6-0.8-2.2-1-3.7-1.8l-5,2.9c-1.8-1.2-2.1-1.3-3.7-2.6L51,357
				c-1.3-1.2-1.8-1.6-2.9-2.9l-5.5,1c-1.3-1.6-1.5-1.9-2.9-3.6l2.4-5c-0.9-1.5-1.2-2.1-2.1-3.6l-5.6-0.6c-0.8-1.9-0.9-2.2-1.6-4.3
				l3.9-4.2c-0.3-1.6-0.5-2.4-0.8-4l-5-2.4c-0.2-2.1-0.2-2.4-0.2-4.5l5-2.4c0.2-1.8,0.3-2.4,0.5-4l-4.2-3.9c0.6-1.9,0.6-2.4,1.2-4.3
				l5.5-1c0.8-1.6,1-2.2,1.8-3.7l-2.9-5c1.2-1.8,1.3-2.1,2.6-3.7l5.6,0.6c1.2-1.3,1.6-1.8,2.9-2.9l-1-5.5c1.6-1.3,1.9-1.5,3.6-2.9
				l5,2.4c1.5-0.9,2.1-1.2,3.6-2.1l0.6-5.6c1.9-0.8,2.2-0.9,4.3-1.6l4.2,3.9c1.6-0.3,2.4-0.5,4-0.8l2.4-5c2.1-0.2,2.4-0.2,4.5-0.2
				l2.7,5c1.8,0.2,2.4,0.3,4,0.5l3.9-4.2c1.9,0.6,2.4,0.6,4.3,1.2l1,5.5c1.6,0.8,2.2,1,3.7,1.8l4.9-2.9c1.8,1.2,2.1,1.3,3.7,2.6
				l-0.6,5.6c1.3,1.2,1.8,1.6,2.9,2.9l5.5-1c1.3,1.6,1.5,1.9,2.9,3.6l-2.4,5c0.9,1.5,1.2,2.1,2.1,3.6l5.6,0.6
				C124.9,306.5,124.9,306.9,125.7,308.9z M82.1,318.7l27.4-10.1c2.6-0.9,3.4-3.9,1.9-6.1c-8-12.2-22.4-18.8-36.5-16.9
				c-2.7,0.3-4.3,2.9-3.2,5.5L82.1,318.7z M101.1,355.3c11.6-7.9,18-21.7,16.6-35.7c-0.3-2.7-2.9-4.3-5.5-3.4l-27.2,10.1l10.1,27.1
				C95.9,355.9,98.8,356.8,101.1,355.3z M47.8,345.5c8,11.6,22,18,36.2,16.2c2.6-0.3,4.2-2.9,3.2-5.5l-10.1-27.1l-27.4,10.1
				C47.3,340.3,46.3,343.3,47.8,345.5z M58.1,291.8c-12.2,8-18.6,22.3-16.7,36.7c0.3,2.6,2.9,4.2,5.5,3.2l27.7-10.3l-10.4-27.8
				C63.1,291.2,60.2,290.2,58.1,291.8z"/>
			<circle fill="#28221F" cx="80.2" cy="323.6" r="23.8"/>
			<path fill="#28221F" d="M222.4,232.2l-0.5,3.1c1.6,1,1.8,1,3.4,1.9l2.6-1.9c1.6,1.2,1.6,1.2,3.2,2.4l-0.9,2.9
				c1.5,1.2,1.5,1.3,2.9,2.6l2.9-1.5c1.5,1.5,1.3,1.3,2.9,2.9l-1.3,2.7c1.2,1.5,1.3,1.5,2.6,2.9l2.7-0.9c1.2,1.6,1.2,1.6,2.4,3.2
				l-1.6,2.2c1,1.6,1,1.6,2.1,3.2l2.7-0.5c0.9,1.8,0.9,1.8,1.9,3.6l-1.9,1.9c0.8,1.8,0.8,1.8,1.5,3.6l2.7-0.2
				c0.8,1.9,0.6,1.8,1.3,3.9l-2.2,1.6c0.5,1.8,0.5,1.9,1,3.9l2.7,0.3c0.3,2.1,0.3,1.9,0.8,4l-2.4,1.2c0.2,1.9,0.2,1.9,0.5,3.9
				l2.6,0.8c0,2.1,0,1.9,0.2,4l-2.7,0.9c-0.2,1.9-0.2,2.1-0.3,3.9l2.9,1.3c-0.3,2.1-0.3,1.9-0.6,4l-3.1,0.6
				c-0.5,1.8-0.5,1.9-0.9,3.9l2.7,1.8c-0.6,1.9-0.6,1.9-1.2,3.9h-3.1c-0.8,1.8-0.8,1.9-1.5,3.6l2.2,2.2c-0.9,1.8-0.9,1.8-1.8,3.6
				l-3.1-0.5c-1,1.6-1,1.8-1.9,3.4l1.9,2.6c-1.2,1.6-1.2,1.6-2.4,3.2l-2.9-0.9c-1.2,1.5-1.3,1.5-2.6,2.9l1.5,2.9
				c-1.5,1.5-1.3,1.3-2.9,2.9l-2.9-1.2c-1.5,1.2-1.5,1.3-2.9,2.6l0.9,2.7c-1.6,1.2-1.6,1.2-3.2,2.4l-2.2-1.6c-1.6,1-1.6,1-3.2,2.1
				l0.5,2.7c-1.8,0.9-1.8,0.9-3.6,1.9l-1.9-1.9c-1.8,0.8-1.8,0.8-3.6,1.5l0.2,2.7c-1.9,0.8-1.8,0.6-3.9,1.3l-1.6-2.2
				c-1.8,0.5-1.9,0.5-3.9,1l-0.3,2.7c-2.1,0.3-1.9,0.3-4,0.8l-1.2-2.4c-1.9,0.2-1.9,0.2-3.9,0.5l-0.8,2.6c-2.1,0-1.9,0-4,0.2
				l-0.9-2.7c-1.9-0.2-2.1-0.2-3.9-0.3l-1.3,2.9c-2.1-0.3-1.9-0.3-4-0.6l-0.6-3.1c-1.8-0.5-1.9-0.5-3.9-0.9l-1.8,2.7
				c-1.9-0.6-1.9-0.6-3.9-1.2v-3.1c-1.8-0.8-1.9-0.8-3.6-1.5l-2.2,2.2c-1.8-0.9-1.8-0.9-3.6-1.8l0.5-3.1c-1.6-1-1.8-1-3.4-1.9
				l-2.6,1.9c-1.6-1.2-1.6-1.2-3.2-2.4l0.9-2.9c-1.5-1.2-1.5-1.3-2.9-2.6l-2.9,1.5c-1.5-1.5-1.3-1.3-2.9-2.9l1.3-2.7
				c-1.2-1.5-1.3-1.5-2.6-2.9l-2.7,0.9c-1.2-1.6-1.2-1.6-2.4-3.2l1.6-2.2c-1-1.6-1-1.6-2.1-3.2l-2.7,0.5c-0.9-1.8-0.9-1.8-1.9-3.6
				l1.9-1.9c-0.8-1.8-0.8-1.8-1.5-3.6l-2.7,0.2c-0.8-1.9-0.6-1.8-1.3-3.9l2.2-1.6c-0.5-1.8-0.5-1.9-1-3.9l-2.7-0.3
				c-0.3-2.1-0.3-1.9-0.8-4l2.4-1.2c-0.2-1.9-0.2-1.9-0.5-3.9l-2.6-0.8c0-2.1,0-1.9-0.2-4l2.7-0.9c0.2-1.9,0.2-2.1,0.3-3.9l-2.9-1.3
				c0.3-2.1,0.3-1.9,0.6-4l3.1-0.6c0.5-1.8,0.5-1.9,0.9-3.9l-2.7-1.8c0.6-1.9,0.6-1.9,1.2-3.9h3.1c0.8-1.8,0.8-1.9,1.5-3.6l-2.2-2.2
				c0.9-1.8,0.9-1.8,1.8-3.6l3.1,0.5c1-1.6,1-1.8,1.9-3.4L138,254c1.2-1.6,1.2-1.6,2.4-3.2l2.9,0.9c1.2-1.5,1.3-1.5,2.6-2.9
				l-1.5-2.9c1.5-1.5,1.3-1.3,2.9-2.9l2.7,1.3c1.5-1.2,1.5-1.3,2.9-2.6l-0.9-2.7c1.6-1.2,1.6-1.2,3.2-2.4l2.2,1.6
				c1.6-1,1.6-1,3.2-2.1l-0.5-2.7c1.8-0.9,1.8-0.9,3.6-1.9l1.9,1.9c1.8-0.8,1.8-0.8,3.6-1.5l-0.2-2.7c1.9-0.8,1.8-0.6,3.9-1.3
				l1.6,2.2c1.8-0.5,1.9-0.5,3.9-1l0.3-2.7c2.1-0.3,1.9-0.3,4-0.8l1.2,2.4c1.9-0.2,1.9-0.2,3.9-0.5l0.8-2.6c2.1,0,1.9,0,4-0.2
				l0.9,2.7c1.9,0.2,2.1,0.2,3.9,0.3l1.3-2.9c2.1,0.3,1.9,0.3,4,0.6l0.6,3.1c1.8,0.5,1.9,0.5,3.9,0.9l1.8-2.7
				c1.9,0.6,1.9,0.6,3.9,1.2v3.1c1.8,0.8,1.9,0.8,3.6,1.5l2.2-2.2C220.7,231.5,220.7,231.3,222.4,232.2z M137.7,281.5
				c-2.7,18.3,4,37.2,18.5,49.6l16.1-32.6L137.7,281.5z M187.1,268.3l16.1-32.6c-18.5-3.9-37.5,2.1-50.6,15.6L187.1,268.3z
				 M246.3,297.6c2.9-18.3-4-36.9-17.9-49.3l-16.1,32.5L246.3,297.6z M197.5,311l-15.9,32.5c18.2,3.6,36.9-2.4,49.9-15.6L197.5,311z
				 M177,282c-4,8.4-0.8,18.3,7.6,22.4c8.4,4,18.3,0.8,22.4-7.6s0.8-18.3-7.6-22.4C191.1,270.4,181.1,273.9,177,282z M220,303.2
				c-0.8,1.6-0.2,3.4,1.5,4.3c1.6,0.8,3.4,0.2,4.3-1.5c0.9-1.6,0.2-3.4-1.5-4.3C222.8,300.8,220.7,301.8,220,303.2z M158.4,272.8
				c-0.8,1.6-0.2,3.4,1.5,4.3c1.6,0.9,3.4,0.2,4.3-1.5c0.8-1.6,0.2-3.4-1.5-4.3C161.1,270.6,159.2,271.4,158.4,272.8z"/>
		</g>
	</g>
	<g enable-background="new    ">
		<path fill="#28221F" d="M388.3,275.5h48.9l-3.2,14.2h-29.4l-3.4,17.2h24.2l-3.1,14.2h-23.8l-6.5,33h-19L388.3,275.5z"/>
		<path fill="#28221F" d="M505.6,300.9c0,27.8-13.8,55-43.7,55c-19.3,0-27.2-10.1-27.2-27c0-27.8,13.8-54.8,43.6-54.8
			C497.6,274.1,505.6,283.9,505.6,300.9z M455.1,326.8c0,8.1,2.5,14.5,10.7,14.5c13.5,0,19.5-22.8,19.5-38.5c0-8-2.6-14.1-10.7-14.1
			C461.1,288.7,455.1,311.2,455.1,326.8z"/>
		<path fill="#28221F" d="M516.6,275.5h58.5l-3.1,14.2h-18.5l-12.5,64.4h-19.2l12.4-64.4h-17.7V275.5z"/>
		<path fill="#28221F" d="M596.9,275.5h16.2l15,78.6h-19.5l-2.9-18.8h-23l-10.1,19.7l-18.6-3.2L596.9,275.5z M600.6,299.8
			l-10.7,21.3h13.6C602.2,313.1,601.3,305.1,600.6,299.8z"/>
		<path fill="#28221F" d="M708.1,324.2c0.5-2.9,1.6-9.4,2.8-14.5c-2.7,5.2-6,11.8-7.4,14.2l-17.2,30.3h-14.9l-5.6-29.9
			c-0.5-2.5-1.6-9.1-2.3-14.1c-0.7,5-1.5,11.5-2,13.8l-5.6,30.7l-18.9-2.8l18.8-76.1H672l8.7,48.5c0.4,2.1,1.1,6.6,1.4,9.4
			c1.4-2.8,3.4-7.2,4.7-9.4l27.5-48.5h16.3l-8.8,78.6h-19.3L708.1,324.2z"/>
	</g>
</g>
</svg>
